<?xml version="1.0" encoding="UTF-8"?>
<svg id="Layer_1" data-name="Layer 1" xmlns="http://www.w3.org/2000/svg" viewBox="0 0 46.16 46.35">
  <defs>
    <style>
      .cls-1 {
        fill: #999;
      }
    </style>
  </defs>
  <path class="cls-1" d="M23.1,46.35c-1.46,0-2.92-.14-4.36-.42-4.5-.87-8.61-3.04-11.87-6.28-3.26-3.24-5.47-7.33-6.39-11.84C-.45,23.31-.02,18.67,1.72,14.41,3.45,10.15,6.38,6.53,10.18,3.96,13.99,1.38,18.42,.01,23.01,0h.1c6.1,0,11.85,2.37,16.2,6.68,4.37,4.33,6.8,10.12,6.85,16.28h0c.04,4.6-1.27,9.07-3.78,12.92-2.52,3.85-6.08,6.83-10.3,8.63-2.87,1.22-5.91,1.83-8.98,1.83Zm.01-43.35h-.09c-3.99,.01-7.85,1.2-11.16,3.44-3.31,2.24-5.86,5.39-7.37,9.1-1.51,3.71-1.89,7.75-1.09,11.68,.8,3.93,2.72,7.5,5.56,10.31,2.84,2.82,6.41,4.7,10.33,5.46,3.92,.75,7.93,.33,11.6-1.23,3.67-1.56,6.77-4.16,8.96-7.51,2.19-3.35,3.33-7.25,3.29-11.25h0c-.04-5.37-2.16-10.41-5.96-14.18-3.78-3.75-8.78-5.81-14.09-5.81Z"/>
  <path class="cls-1" d="M35.38,32.61c.01-1.23-.34-2.43-1.01-3.46-.67-1.03-1.63-1.83-2.76-2.3-1.13-.47-2.37-.6-3.57-.36-1.2,.24-2.3,.83-3.17,1.7-.86,.87-1.45,1.98-1.69,3.18-.24,1.2-.11,2.45,.36,3.59,.47,1.13,1.27,2.1,2.29,2.77s2.22,1.03,3.44,1.02c1.61-.02,3.16-.67,4.3-1.81,1.14-1.15,1.79-2.7,1.8-4.32Z"/>
  <path class="cls-1" d="M13.83,23.53c-.8,0-1.59,.14-2.34,.44-.74,.3-1.42,.74-1.99,1.31-.57,.56-1.03,1.23-1.34,1.97-.31,.74-.48,1.53-.49,2.34,0,.8,.14,1.6,.44,2.35,.3,.75,.74,1.42,1.3,2,.56,.57,1.23,1.03,1.96,1.35,.74,.32,1.53,.48,2.33,.49,.8,0,1.59-.14,2.34-.44,.74-.3,1.42-.74,1.99-1.31,.57-.56,1.03-1.23,1.34-1.97,.31-.74,.48-1.53,.49-2.34,0-.8-.14-1.6-.44-2.35-.3-.75-.74-1.42-1.3-2-.56-.57-1.23-1.03-1.96-1.35-.74-.32-1.53-.48-2.33-.49Z"/>
  <path class="cls-1" d="M16.93,7.29c-1.19,0-2.36,.37-3.35,1.04-.99,.67-1.76,1.62-2.22,2.73s-.57,2.33-.34,3.51c.23,1.18,.8,2.26,1.64,3.11,.84,.85,1.91,1.43,3.08,1.68,1.17,.24,2.38,.13,3.49-.32,1.11-.45,2.06-1.22,2.73-2.2,.68-.99,1.05-2.16,1.06-3.36,0-.81-.15-1.61-.45-2.36-.3-.75-.75-1.43-1.32-2.01-.57-.58-1.24-1.03-1.99-1.34-.74-.31-1.54-.47-2.35-.47Z"/>
  <path class="cls-1" d="M32.33,22.48c1.21,0,2.39-.36,3.39-1.03,1-.67,1.79-1.63,2.25-2.75,.46-1.12,.58-2.35,.35-3.54-.23-1.19-.82-2.28-1.67-3.14-.85-.86-1.94-1.44-3.12-1.68-1.18-.24-2.41-.12-3.53,.35-1.12,.46-2.07,1.25-2.74,2.26-.67,1.01-1.03,2.19-1.03,3.41,0,.81,.15,1.6,.45,2.35,.3,.75,.75,1.42,1.32,1.99,.57,.57,1.24,1.02,1.98,1.33,.74,.31,1.54,.46,2.34,.46Z"/>
  <path class="cls-1" d="M22.93,20.46c-.53,.01-1.04,.18-1.48,.48-.43,.3-.77,.73-.97,1.22-.19,.49-.24,1.04-.13,1.56,.11,.52,.37,1,.75,1.37,.38,.37,.86,.62,1.38,.72,.52,.1,1.06,.04,1.55-.17,.49-.21,.9-.56,1.19-1,.29-.44,.45-.97,.44-1.5-.01-.72-.31-1.41-.82-1.91-.51-.5-1.2-.78-1.92-.78Z"/>
</svg>