<?xml version="1.0" encoding="UTF-8"?>
<svg id="Layer_1" data-name="Layer 1" xmlns="http://www.w3.org/2000/svg" viewBox="0 0 22.58 22.58">
  <defs>
    <style>
      .cls-1 {
        fill: #aae73e;
      }
    </style>
  </defs>
  <path class="cls-1" d="M20.58,22.58c-.51,0-1.02-.2-1.41-.59L.59,3.41C-.2,2.63-.2,1.37,.59,.59,1.37-.2,2.63-.2,3.41,.59L21.99,19.16c.78,.78,.78,2.05,0,2.83-.39,.39-.9,.59-1.41,.59Z"/>
  <path class="cls-1" d="M2,21.89c-1.1,0-2-.9-2-2V0H19.89c1.1,0,2,.9,2,2s-.9,2-2,2H4v15.89c0,1.1-.9,2-2,2Z"/>
</svg>