<?xml version="1.0" encoding="UTF-8"?>
<svg id="Layer_1" data-name="Layer 1" xmlns="http://www.w3.org/2000/svg" viewBox="0 0 43.8 35">
  <defs>
    <style>
      .cls-1 {
        fill: #f15a24;
      }
    </style>
  </defs>
  <polygon class="cls-1" points="31.05 18.57 29.4 17.43 40 2 33.32 2 24.73 14.65 23.07 13.53 32.26 0 43.8 0 31.05 18.57"/>
  <polygon class="cls-1" points="12.76 18.57 0 0 11.54 0 20.73 13.53 19.07 14.66 10.48 2 3.8 2 14.4 17.43 12.76 18.57"/>
  <path class="cls-1" d="M21.9,35c-6.07,0-11-4.93-11-11s4.93-11,11-11,11,4.93,11,11-4.93,11-11,11Zm0-20c-4.96,0-9,4.04-9,9s4.04,9,9,9,9-4.04,9-9-4.04-9-9-9Z"/>
  <path class="cls-1" d="M21.9,30c-3.31,0-6-2.69-6-6s2.69-6,6-6,6,2.69,6,6-2.69,6-6,6Zm0-10c-2.21,0-4,1.79-4,4s1.79,4,4,4,4-1.79,4-4-1.79-4-4-4Z"/>
</svg>