<?xml version="1.0" encoding="UTF-8"?>
<svg id="Layer_1" data-name="Layer 1" xmlns="http://www.w3.org/2000/svg" viewBox="0 0 28.53 30">
  <defs>
    <style>
      .cls-1 {
        fill: #f15a24;
      }
    </style>
  </defs>
  <path class="cls-1" d="M14.27,30l-3.14-5.37-5.68,2.5,.62-6.18L0,19.63l4.14-4.63L0,10.36l6.08-1.31-.62-6.17,5.68,2.49L14.27,0l3.12,5.36,5.69-2.49-.62,6.17,6.06,1.31-4.13,4.63,4.12,4.63-6.06,1.32,.62,6.18-5.69-2.5-3.12,5.37Zm-2.31-7.92l2.3,3.95,2.3-3.95,4.19,1.84-.46-4.54,4.46-.97-3.04-3.41,3.03-3.41-4.46-.97,.46-4.55-4.19,1.83-2.3-3.94-2.3,3.94-4.18-1.83,.46,4.55-4.46,.97,3.04,3.41-3.04,3.41,4.47,.97-.46,4.54,4.18-1.84Z"/>
</svg>