<?xml version="1.0" encoding="UTF-8"?>
<svg id="Layer_1" data-name="Layer 1" xmlns="http://www.w3.org/2000/svg" viewBox="0 0 26 40.41">
  <defs>
    <style>
      .cls-1 {
        fill: #f15a24;
      }
    </style>
  </defs>
  <path class="cls-1" d="M13,21c-4.41,0-8-3.59-8-8S8.59,5,13,5s8,3.59,8,8-3.59,8-8,8Zm0-14c-3.31,0-6,2.69-6,6s2.69,6,6,6,6-2.69,6-6-2.69-6-6-6Z"/>
  <path class="cls-1" d="M13,26C5.83,26,0,20.17,0,13S5.83,0,13,0s13,5.83,13,13-5.83,13-13,13Zm0-24C6.93,2,2,6.93,2,13s4.93,11,11,11,11-4.93,11-11S19.07,2,13,2Z"/>
  <polygon class="cls-1" points="18 40.41 12.5 34.92 7 40.41 7 24 9 24 9 35.59 12.5 32.09 16 35.59 16 24 18 24 18 40.41"/>
</svg>