<?xml version="1.0" encoding="UTF-8"?>
<svg id="Layer_1" data-name="Layer 1" xmlns="http://www.w3.org/2000/svg" viewBox="0 0 32 26">
  <defs>
    <style>
      .cls-1 {
        fill: #676767;
      }
    </style>
  </defs>
  <path class="cls-1" d="M27.97,26H4.03c-1.08,0-2.09-.42-2.85-1.19-.76-.76-1.18-1.78-1.18-2.86V4.05C0,2.97,.42,1.96,1.18,1.19,1.92,.43,2.96,0,4.02,0H27.97c1.08,0,2.09,.42,2.85,1.19,.76,.76,1.18,1.78,1.18,2.86V21.95c0,1.08-.42,2.1-1.18,2.86-.76,.77-1.77,1.19-2.85,1.19ZM4.02,2c-.54,0-1.05,.21-1.43,.6-.38,.38-.6,.91-.6,1.46V21.95c0,.54,.22,1.07,.6,1.46,.38,.39,.89,.6,1.43,.6H27.97c.54,0,1.05-.21,1.43-.6,.38-.38,.6-.91,.6-1.46V4.05c0-.54-.22-1.07-.6-1.46-.38-.39-.89-.6-1.43-.6H4.02Zm12.69,11h-.45c-3.86,0-7-3.14-7-7,0-.55,.45-1,1-1s1,.45,1,1c0,2.76,2.24,5,5,5h.45c2.76,0,5-2.24,5-5,0-.55,.45-1,1-1s1,.45,1,1c0,3.86-3.14,7-7,7Z"/>
</svg>