<svg width="32" height="26" viewBox="0 0 32 26" fill="none" xmlns="http://www.w3.org/2000/svg">
<path d="M22.8064 6.27401V6.27401C22.8064 9.63687 20.0802 12.363 16.7174 12.363H16.257C12.8941 12.363 10.168 9.63687 10.168 6.27401V6.27401M27.9657 1H21.9063H10.168H4.02506C3.22276 1 2.45333 1.32175 1.88602 1.89446C1.31871 2.46717 1 3.24393 1 4.05387V21.9461C1.00246 22.7569 1.32323 23.5337 1.89201 24.1061C2.46079 24.6786 3.23119 25 4.03434 25H27.975C28.7772 25 29.5467 24.6783 30.114 24.1055C30.6813 23.5328 31 22.7561 31 21.9461V4.05387C30.9975 3.24307 30.6768 2.46633 30.108 1.89389C29.5392 1.32144 28.7688 0.999996 27.9657 1Z" stroke="#F15A24" stroke-width="2" stroke-miterlimit="10" stroke-linecap="round"/>
</svg>
