<?xml version="1.0" encoding="UTF-8"?>
<svg id="Layer_1" data-name="Layer 1" xmlns="http://www.w3.org/2000/svg" viewBox="0 0 34 31.05">
  <defs>
    <style>
      .cls-1 {
        fill: #fff;
      }
    </style>
  </defs>
  <path class="cls-1" d="M17.17,24.29c-.83,0-1.5-.67-1.5-1.5V1.5c0-.83,.67-1.5,1.5-1.5s1.5,.67,1.5,1.5V22.79c0,.83-.67,1.5-1.5,1.5Z"/>
  <path class="cls-1" d="M17.17,24.91L5.85,13.6c-.59-.59-.59-1.54,0-2.12s1.54-.59,2.12,0l9.19,9.19,9.19-9.19c.59-.59,1.54-.59,2.12,0s.59,1.54,0,2.12l-11.31,11.31Z"/>
  <path class="cls-1" d="M27.5,31.05H6.5c-3.58,0-6.5-2.92-6.5-6.5v-4c0-.83,.67-1.5,1.5-1.5s1.5,.67,1.5,1.5v4c0,1.93,1.57,3.5,3.5,3.5H27.5c1.93,0,3.5-1.57,3.5-3.5v-4c0-.83,.67-1.5,1.5-1.5s1.5,.67,1.5,1.5v4c0,3.58-2.92,6.5-6.5,6.5Z"/>
</svg>