<?xml version="1.0" encoding="UTF-8"?>
<svg id="Layer_1" data-name="Layer 1" xmlns="http://www.w3.org/2000/svg" viewBox="0 0 18 35">
  <defs>
    <style>
      .cls-1 {
        fill: #f15a24;
      }
    </style>
  </defs>
  <path class="cls-1" d="M15,28c-.55,0-1-.45-1-1v-6c0-2.76-2.24-5-5-5h-2c-3.86,0-7-3.14-7-7v-2C0,3.14,3.14,0,7,0h10c.55,0,1,.45,1,1s-.45,1-1,1H7c-2.76,0-5,2.24-5,5v2c0,2.76,2.24,5,5,5h2c3.86,0,7,3.14,7,7v6c0,.55-.45,1-1,1Z"/>
  <path class="cls-1" d="M15,35c-.55,0-1-.45-1-1v-2c0-.55,.45-1,1-1s1,.45,1,1v2c0,.55-.45,1-1,1Z"/>
</svg>