<?xml version="1.0" encoding="UTF-8"?>
<svg id="Layer_1" data-name="Layer 1" xmlns="http://www.w3.org/2000/svg" viewBox="0 0 32 28.4">
  <defs>
    <style>
      .cls-1 {
        fill: #fff;
      }
    </style>
  </defs>
  <path class="cls-1" d="M15.98,28.4L2.64,15.21c-.84-.83-1.5-1.8-1.95-2.89-.46-1.09-.69-2.24-.69-3.41s.23-2.32,.69-3.41c.46-1.09,1.11-2.06,1.95-2.89,.84-.83,1.82-1.48,2.92-1.93C7.75-.21,10.24-.21,12.43,.68c1.09,.45,2.08,1.1,2.92,1.93l.66,.66,.66-.66c.84-.83,1.82-1.48,2.91-1.93,2.2-.9,4.69-.9,6.88,0,1.09,.45,2.08,1.1,2.92,1.94h0c.84,.84,1.49,1.81,1.94,2.9,.45,1.09,.67,2.24,.67,3.42s-.25,2.33-.72,3.41c-.46,1.08-1.13,2.05-1.99,2.87l-13.32,13.18ZM8.99,2.01c-.92,0-1.83,.18-2.68,.53-.85,.35-1.62,.85-2.27,1.5-.65,.65-1.16,1.4-1.51,2.24-.35,.84-.53,1.73-.53,2.64s.18,1.8,.53,2.64c.35,.84,.86,1.6,1.51,2.24l11.93,11.8,11.92-11.8c.67-.65,1.19-1.4,1.55-2.23,.36-.84,.55-1.73,.55-2.64,0-.91-.17-1.8-.51-2.64-.35-.84-.85-1.6-1.5-2.25h0c-.65-.65-1.42-1.15-2.27-1.5-1.71-.7-3.65-.7-5.36,0-.85,.35-1.62,.86-2.27,1.5l-2.07,2.05-2.07-2.05c-.65-.65-1.42-1.15-2.27-1.5-.85-.35-1.76-.53-2.68-.53Z"/>
</svg>