<?xml version="1.0" encoding="UTF-8"?>
<svg id="Layer_1" data-name="Layer 1" xmlns="http://www.w3.org/2000/svg" viewBox="0 0 44.82 45.01">
  <defs>
    <style>
      .cls-1 {
        fill: #999;
      }
    </style>
  </defs>
  <path class="cls-1" d="M35.88,45.01H8.94c-4.93,0-8.94-4.02-8.94-8.97V8.97C0,4.02,4.01,0,8.94,0h26.95c4.93,0,8.94,4.02,8.94,8.97v27.07c0,4.95-4.01,8.97-8.94,8.97ZM8.94,3c-3.27,0-5.94,2.68-5.94,5.97v27.07c0,3.29,2.66,5.97,5.94,5.97h26.95c3.27,0,5.94-2.68,5.94-5.97V8.97c0-3.29-2.66-5.97-5.94-5.97H8.94Z"/>
  <path class="cls-1" d="M22.41,30.91c4.62,0,8.37-3.76,8.37-8.4s-3.75-8.4-8.37-8.4-8.37,3.76-8.37,8.4,3.75,8.4,8.37,8.4Z"/>
  <path class="cls-1" d="M35.63,11.17c1.07,0,1.94-.87,1.94-1.94s-.87-1.94-1.94-1.94-1.94,.87-1.94,1.94,.87,1.94,1.94,1.94Z"/>
</svg>