<?xml version="1.0" encoding="UTF-8"?>
<svg id="Layer_1" data-name="Layer 1" xmlns="http://www.w3.org/2000/svg" viewBox="0 0 25 25">
  <defs>
    <style>
      .cls-1 {
        fill: #f15a24;
      }
    </style>
  </defs>
  <path class="cls-1" d="M24,25c-.26,0-.51-.1-.71-.29L11.79,13.21c-.39-.39-.39-1.02,0-1.41s1.02-.39,1.41,0l11.5,11.5c.39,.39,.39,1.02,0,1.41-.2,.2-.45,.29-.71,.29Z"/>
  <path class="cls-1" d="M12.5,24.57c-.55,0-1-.45-1-1V11.5h12.07c.55,0,1,.45,1,1s-.45,1-1,1H13.5v10.07c0,.55-.45,1-1,1Z"/>
  <path class="cls-1" d="M1,24.15c-.55,0-1-.45-1-1V0H23.15c.55,0,1,.45,1,1s-.45,1-1,1H2V23.15c0,.55-.45,1-1,1Z"/>
</svg>