<svg width="22" height="16" viewBox="0 0 22 16" fill="none" xmlns="http://www.w3.org/2000/svg">
<path fill-rule="evenodd" clip-rule="evenodd" d="M0 2.75C0 1.50579 1.00579 0.5 2.25 0.5H19.75C20.9942 0.5 22 1.50579 22 2.75V13.25C22 14.4942 20.9942 15.5 19.75 15.5H2.25C1.00579 15.5 0 14.4942 0 13.25V2.75ZM2.25 2C1.83421 2 1.5 2.33421 1.5 2.75V13.25C1.5 13.6658 1.83421 14 2.25 14H19.75C20.1658 14 20.5 13.6658 20.5 13.25V2.75C20.5 2.33421 20.1658 2 19.75 2H2.25ZM12.4738 11.1668C12.693 11.1916 12.9053 11.1657 13.1 11.0989V11.31C13.1 11.8628 12.665 12.29 12.15 12.29C11.8739 12.29 11.65 12.5139 11.65 12.79C11.65 13.0662 11.8739 13.29 12.15 13.29C13.235 13.29 14.1 12.3972 14.1 11.31V11.1694C15.1614 11.1425 16 10.2605 16 9.19002V8.77002C16 8.49388 15.7761 8.27002 15.5 8.27002C15.2239 8.27002 15 8.49388 15 8.77002V9.19002C15 9.72483 14.5928 10.1421 14.1 10.1687V9.83002C14.1 9.8024 14.0978 9.77531 14.0935 9.74892C14.1205 8.98323 13.5675 8.30162 12.7862 8.21318C11.9679 8.12053 11.247 8.73506 11.1721 9.5439C11.098 10.3444 11.6629 11.075 12.4738 11.1668ZM13.1 6.28003C12.8239 6.28003 12.6 6.50389 12.6 6.78003C12.6 7.05617 12.8239 7.28003 13.1 7.28003H14.55C14.8261 7.28003 15.05 7.05617 15.05 6.78003C15.05 6.50389 14.8261 6.28003 14.55 6.28003H13.1ZM8 3.5C8 3.22386 8.22386 3 8.5 3H8.51C8.78614 3 9.01 3.22386 9.01 3.5C9.01 3.77614 8.78614 4 8.51 4H8.5C8.22386 4 8 3.77614 8 3.5ZM9.07001 8.28003C8.26722 8.28003 7.60001 8.93054 7.60001 9.75003V9.78003C7.60001 9.92754 7.62137 10.0698 7.66119 10.2038C7.28224 10.0791 7 9.7153 7 9.27003V7.56003C7 7.28389 6.77614 7.06003 6.5 7.06003C6.22386 7.06003 6 7.28389 6 7.56003V9.27003C6 10.3572 6.86501 11.25 7.95 11.25H9.06L9.06358 11.25L9.07001 11.25C9.89291 11.25 10.53 10.5894 10.53 9.78003V9.75003C10.53 8.93727 9.87952 8.28003 9.07001 8.28003ZM8.60001 9.75003C8.60001 9.48952 8.81279 9.28003 9.07001 9.28003C9.32049 9.28003 9.53001 9.48279 9.53001 9.75003V9.78003C9.53001 10.0507 9.3271 10.25 9.07001 10.25C8.80615 10.25 8.60001 10.0439 8.60001 9.78003V9.75003ZM12.6738 9.20683C12.4321 9.17947 12.193 9.36494 12.1679 9.6361C12.142 9.91562 12.3371 10.145 12.5862 10.1732C12.8279 10.2005 13.067 10.0151 13.0921 9.7439C13.118 9.46438 12.9229 9.23504 12.6738 9.20683ZM6.51001 2.89001C6.78615 2.89001 7.01001 3.11387 7.01001 3.39001V4.37001C7.01001 5.19225 7.66446 5.84001 8.44001 5.84001C9.21556 5.84001 9.87001 5.19225 9.87001 4.37001V3.39001C9.87001 3.11387 10.0939 2.89001 10.37 2.89001C10.6462 2.89001 10.87 3.11387 10.87 3.39001V4.37001C10.87 5.72778 9.78446 6.84001 8.44001 6.84001C7.09556 6.84001 6.01001 5.72778 6.01001 4.37001V3.39001C6.01001 3.11387 6.23387 2.89001 6.51001 2.89001Z" fill="black"/>
</svg>
