<?xml version="1.0" encoding="UTF-8"?>
<svg id="Layer_1" data-name="Layer 1" xmlns="http://www.w3.org/2000/svg" viewBox="0 0 23.31 25.22">
  <defs>
    <style>
      .cls-1 {
        fill: #676767;
      }
    </style>
  </defs>
  <path class="cls-1" d="M1,25.22c-.24,0-.48-.09-.67-.26-.41-.37-.44-1-.07-1.41l6.37-7.01c.37-.41,1-.44,1.41-.07,.41,.37,.44,1,.07,1.41L1.74,24.9c-.2,.22-.47,.33-.74,.33Z"/>
  <path class="cls-1" d="M13.43,19.76c-5.45,0-9.88-4.43-9.88-9.88S7.98,0,13.43,0s9.88,4.43,9.88,9.88-4.43,9.88-9.88,9.88Zm0-17.76c-4.35,0-7.88,3.54-7.88,7.88s3.53,7.88,7.88,7.88,7.88-3.54,7.88-7.88-3.54-7.88-7.88-7.88Z"/>
</svg>