<svg id="svg" version="1.1" xmlns="http://www.w3.org/2000/svg" xmlns:xlink="http://www.w3.org/1999/xlink" width="400" height="400" viewBox="0, 0, 400,400"><g id="svgg"><path id="path0" d="M116.000 6.000 C 116.485 6.314,116.428 6.389,115.700 6.394 C 115.205 6.397,114.800 6.580,114.800 6.800 C 114.800 7.020,114.549 7.200,114.243 7.200 C 113.603 7.200,113.080 8.282,113.439 8.863 C 113.572 9.078,113.368 9.196,112.986 9.127 C 111.838 8.917,111.833 9.077,111.816 51.904 L 111.800 93.207 69.100 93.104 C 45.615 93.047,26.400 93.110,26.400 93.245 C 26.400 93.379,25.921 93.397,25.335 93.285 C 24.467 93.120,24.316 93.204,24.522 93.741 C 24.754 94.346,24.188 94.624,23.089 94.444 C 22.918 94.416,22.678 94.653,22.556 94.971 C 22.434 95.289,22.101 95.460,21.817 95.351 C 21.511 95.234,21.302 95.448,21.305 95.876 C 21.316 97.532,21.164 97.957,20.487 98.172 C 20.085 98.300,19.738 98.844,19.690 99.421 C 19.630 100.143,19.751 100.356,20.103 100.145 C 20.490 99.912,20.496 99.975,20.128 100.431 C 19.803 100.832,19.650 103.389,19.638 108.598 C 19.621 115.766,19.575 116.215,18.800 116.800 C 18.128 117.307,18.072 117.519,18.490 117.968 C 18.770 118.270,18.804 118.408,18.563 118.274 C 18.255 118.102,18.106 120.690,18.056 127.116 C 17.981 136.644,17.879 137.682,17.050 137.364 C 16.647 137.209,16.530 139.276,16.487 147.277 C 16.439 156.368,16.364 157.437,15.740 157.893 C 15.359 158.172,15.194 158.400,15.373 158.400 C 15.552 158.400,15.516 158.625,15.294 158.900 C 15.053 159.198,14.877 162.791,14.857 167.800 C 14.839 172.420,14.819 176.791,14.812 177.513 C 14.804 178.379,14.562 178.923,14.100 179.113 C 13.569 179.331,13.389 179.905,13.353 181.491 C 13.320 182.936,13.444 183.499,13.753 183.314 C 14.074 183.122,14.073 183.208,13.747 183.623 C 13.458 183.991,13.285 186.372,13.270 190.200 C 13.230 200.145,13.259 199.708,12.639 199.470 C 11.943 199.203,11.568 200.442,12.072 201.343 C 12.274 201.704,12.296 202.000,12.120 202.000 C 11.944 202.000,11.763 205.993,11.718 210.874 C 11.648 218.454,11.544 219.799,11.009 220.099 C 10.665 220.291,10.488 220.618,10.615 220.825 C 10.743 221.031,10.725 221.397,10.577 221.638 C 10.428 221.879,10.232 226.134,10.142 231.094 C 9.974 240.311,9.895 241.010,9.072 240.548 C 8.754 240.369,8.763 240.458,9.100 240.821 C 9.678 241.444,9.774 242.155,9.235 241.822 C 8.829 241.570,8.607 248.566,8.772 256.458 C 8.868 261.025,8.806 261.557,8.139 261.930 C 7.341 262.376,7.232 264.134,7.210 276.943 C 7.202 281.616,7.109 282.451,6.620 282.263 C 6.213 282.107,6.114 282.233,6.288 282.686 C 6.445 283.095,6.376 283.232,6.099 283.061 C 5.796 282.874,5.659 283.867,5.650 286.296 C 5.607 298.843,5.511 304.136,5.335 303.700 C 5.224 303.425,4.958 303.200,4.743 303.200 C 4.528 303.200,4.464 303.380,4.600 303.600 C 4.736 303.820,4.646 304.000,4.400 304.000 C 4.100 304.000,3.969 305.155,4.002 307.500 C 4.172 319.279,3.997 324.400,3.424 324.400 C 3.107 324.400,2.719 324.608,2.562 324.862 C 2.368 325.175,2.457 325.215,2.838 324.985 C 3.299 324.707,3.311 324.757,2.902 325.262 C 2.541 325.708,2.410 328.056,2.425 333.838 C 2.455 345.250,2.518 344.444,1.584 344.688 C 0.802 344.893,0.797 344.934,1.473 345.680 C 1.860 346.109,2.003 346.425,1.789 346.382 C 0.940 346.214,0.632 346.433,1.200 346.800 C 1.566 347.036,1.613 347.190,1.321 347.194 C 0.963 347.198,0.835 349.463,0.816 356.079 C 0.798 362.682,0.664 365.039,0.296 365.273 C -0.073 365.507,-0.046 365.591,0.400 365.600 C 0.892 365.610,0.901 365.675,0.455 365.958 C -0.006 366.249,-0.006 366.337,0.455 366.520 C 0.842 366.674,0.855 366.746,0.500 366.768 C -0.453 366.829,-0.200 392.800,0.753 392.800 C 1.170 392.800,1.600 393.157,1.716 393.599 C 2.001 394.689,397.218 394.887,398.625 393.798 C 399.198 393.355,399.228 393.258,398.740 393.426 C 398.378 393.552,397.975 393.483,397.845 393.272 C 397.715 393.062,397.832 392.898,398.104 392.908 C 400.124 392.981,400.000 393.888,400.000 379.033 C 400.000 370.320,399.855 365.218,399.605 365.133 C 399.362 365.052,399.169 361.204,399.105 355.200 C 399.028 348.060,398.873 345.400,398.533 345.400 C 397.661 345.400,397.622 344.958,397.587 334.686 C 397.566 328.636,397.394 324.320,397.169 324.181 C 396.959 324.051,396.908 323.749,397.055 323.511 C 397.206 323.267,397.139 323.190,396.904 323.336 C 396.144 323.806,396.033 322.524,395.979 312.610 C 395.944 306.184,395.779 302.710,395.501 302.539 C 395.236 302.375,395.196 302.470,395.394 302.790 C 395.605 303.132,395.526 303.242,395.156 303.119 C 394.706 302.969,394.581 301.109,394.498 293.367 C 394.442 288.105,394.278 283.530,394.135 283.200 C 393.991 282.870,393.899 282.471,393.932 282.314 C 393.964 282.157,393.723 282.132,393.395 282.257 C 392.843 282.469,392.630 276.542,392.694 262.694 C 392.696 262.135,392.580 262.084,392.139 262.451 C 391.832 262.706,391.465 262.798,391.324 262.657 C 391.182 262.516,391.287 262.400,391.557 262.400 C 391.827 262.400,391.934 262.217,391.796 261.994 C 391.658 261.771,391.526 257.541,391.502 252.594 C 391.473 246.763,391.314 243.600,391.049 243.600 C 390.801 243.600,390.821 243.419,391.101 243.139 C 391.385 242.855,391.431 242.431,391.221 242.039 C 390.869 241.382,390.800 241.109,390.800 240.376 C 390.800 240.143,390.620 240.064,390.400 240.200 C 390.000 240.447,389.969 239.650,389.930 228.300 C 389.915 224.101,389.809 223.200,389.328 223.200 C 388.843 223.200,388.855 223.088,389.397 222.546 C 389.827 222.116,389.916 221.756,389.657 221.497 C 389.440 221.280,389.355 220.862,389.468 220.567 C 389.603 220.215,389.421 220.080,388.937 220.173 C 388.237 220.307,388.201 219.823,388.221 210.478 C 388.240 201.466,388.180 200.580,387.510 199.910 C 386.844 199.244,386.773 198.280,386.715 189.115 C 386.657 180.021,386.581 178.981,385.933 178.333 C 385.289 177.689,385.209 176.674,385.147 168.408 C 385.081 159.641,385.042 159.200,384.315 159.200 C 383.896 159.200,383.666 159.017,383.804 158.793 C 383.942 158.570,384.210 158.483,384.400 158.600 C 384.932 158.929,385.191 158.232,384.780 157.581 C 384.528 157.182,384.410 157.157,384.406 157.500 C 384.397 158.274,383.739 158.090,383.691 157.300 C 383.668 156.915,383.636 152.345,383.619 147.144 C 383.589 137.938,383.328 136.005,382.263 137.070 C 381.998 137.335,381.898 132.377,381.986 123.306 C 382.029 118.774,381.980 118.429,381.316 118.639 C 380.636 118.854,380.635 118.836,381.300 118.289 C 382.237 117.516,382.182 117.206,381.100 117.172 C 380.241 117.145,380.237 117.128,381.000 116.800 C 381.684 116.506,381.699 116.452,381.100 116.428 C 380.358 116.398,380.256 114.469,380.381 102.754 C 380.425 98.624,380.398 98.491,379.407 97.842 C 378.648 97.344,378.435 96.921,378.569 96.179 C 378.687 95.528,378.599 95.277,378.314 95.453 C 378.075 95.601,377.652 95.413,377.376 95.034 C 377.099 94.656,376.766 94.359,376.636 94.373 C 375.828 94.464,375.600 94.328,375.600 93.753 C 375.600 93.279,375.333 93.158,374.600 93.298 C 374.050 93.403,373.600 93.379,373.600 93.245 C 373.600 93.110,354.430 93.047,331.000 93.104 L 288.400 93.207 288.324 53.904 C 288.282 32.287,288.262 13.655,288.280 12.500 C 288.300 11.269,288.138 10.400,287.890 10.400 C 287.657 10.400,287.578 10.289,287.714 10.152 C 287.850 10.016,287.700 9.643,287.381 9.324 C 287.061 9.004,286.800 8.375,286.800 7.925 C 286.800 7.271,286.602 7.145,285.812 7.296 C 285.269 7.399,284.920 7.329,285.038 7.139 C 286.013 5.561,288.141 5.600,199.729 5.606 C 145.137 5.610,115.612 5.749,116.000 6.000 M271.200 57.200 L 271.200 93.200 200.000 93.200 L 128.800 93.200 128.800 57.200 L 128.800 21.200 200.000 21.200 L 271.200 21.200 271.200 57.200 M111.600 115.824 C 111.600 120.303,111.452 123.156,111.228 123.017 C 111.023 122.891,110.742 122.970,110.604 123.193 C 110.466 123.417,110.554 123.600,110.800 123.600 C 111.046 123.600,111.136 123.780,111.000 124.000 C 110.864 124.220,110.283 124.400,109.710 124.400 C 109.136 124.400,108.785 124.518,108.930 124.663 C 109.347 125.081,108.380 126.000,107.522 126.000 C 106.695 126.000,106.065 126.498,105.244 127.800 C 104.891 128.361,104.802 128.397,104.949 127.920 C 105.096 127.446,104.984 127.308,104.580 127.463 C 104.261 127.586,104.000 128.116,104.000 128.643 C 104.000 129.234,103.767 129.600,103.390 129.600 C 103.034 129.600,102.681 130.094,102.542 130.788 C 102.408 131.458,101.976 132.081,101.552 132.215 C 100.938 132.410,100.800 132.851,100.800 134.627 C 100.800 135.822,100.620 136.800,100.400 136.800 C 100.180 136.800,99.997 137.115,99.994 137.500 C 99.989 138.095,99.931 138.110,99.610 137.602 C 99.357 137.202,99.242 138.198,99.263 140.602 C 99.281 142.623,99.493 144.453,99.747 144.777 C 100.094 145.218,100.083 145.284,99.703 145.055 C 99.351 144.844,99.230 145.056,99.290 145.778 C 99.349 146.495,99.617 146.812,100.187 146.840 C 100.876 146.874,100.847 146.929,100.000 147.200 C 99.041 147.507,99.037 147.522,99.900 147.560 C 100.639 147.593,100.801 147.832,100.805 148.900 C 100.813 150.800,101.216 152.000,101.847 152.000 C 102.176 152.000,102.400 152.422,102.400 153.043 C 102.400 153.817,102.559 154.025,103.015 153.850 C 103.644 153.608,103.754 153.784,104.174 155.700 C 104.307 156.305,104.670 156.800,104.981 156.800 C 105.292 156.800,105.648 157.122,105.773 157.515 C 105.917 157.969,106.458 158.265,107.255 158.325 C 108.856 158.447,109.220 158.682,108.940 159.413 C 108.795 159.790,108.963 160.000,109.410 160.000 C 109.793 160.000,110.397 160.321,110.753 160.714 C 111.109 161.106,111.715 161.444,112.100 161.464 C 112.485 161.484,113.719 161.523,114.843 161.550 C 116.428 161.589,116.837 161.727,116.668 162.167 C 116.548 162.479,116.724 162.839,117.058 162.967 C 118.086 163.361,123.268 163.233,123.012 162.820 C 122.608 162.165,124.257 161.600,126.574 161.600 C 128.533 161.600,128.800 161.504,128.800 160.800 C 128.800 160.040,129.465 159.817,131.500 159.893 C 131.775 159.903,132.000 159.571,132.000 159.156 C 132.000 158.681,132.281 158.400,132.756 158.400 C 133.230 158.400,133.490 158.139,133.456 157.700 C 133.415 157.192,133.647 157.034,134.300 157.125 C 134.983 157.220,135.200 157.051,135.200 156.425 C 135.200 155.971,135.437 155.600,135.726 155.600 C 136.015 155.600,136.552 154.970,136.919 154.200 C 137.287 153.430,137.770 152.800,137.994 152.800 C 138.217 152.800,138.400 152.350,138.400 151.800 C 138.400 151.250,138.591 150.800,138.824 150.800 C 139.057 150.800,139.148 150.639,139.026 150.442 C 138.904 150.245,139.087 149.976,139.431 149.843 C 139.780 149.709,140.025 149.204,139.985 148.701 C 139.783 146.216,140.030 144.000,140.509 144.000 C 140.840 144.000,141.001 143.474,140.969 142.500 C 140.892 140.185,140.830 139.934,140.400 140.200 C 140.149 140.355,140.000 139.479,140.000 137.847 C 140.000 136.378,139.807 135.128,139.557 134.974 C 139.242 134.779,139.258 134.612,139.610 134.394 C 139.959 134.178,139.853 134.007,139.253 133.817 C 138.784 133.668,138.400 133.213,138.400 132.806 C 138.400 131.639,137.964 130.800,137.357 130.800 C 137.030 130.800,136.800 130.388,136.800 129.800 C 136.800 129.250,136.665 128.821,136.500 128.847 C 135.675 128.978,135.200 128.741,135.200 128.200 C 135.200 127.655,135.004 127.552,134.100 127.624 C 133.935 127.637,133.698 127.232,133.573 126.724 C 133.430 126.140,133.099 125.843,132.673 125.918 C 132.224 125.996,132.000 125.764,132.000 125.218 C 132.000 124.518,131.746 124.400,130.235 124.400 C 128.770 124.400,128.494 124.281,128.605 123.700 C 128.678 123.315,128.753 119.715,128.769 115.700 L 128.800 108.400 200.000 108.400 L 271.200 108.400 271.200 116.400 C 271.200 125.068,271.308 124.661,269.056 124.460 C 268.534 124.414,268.384 124.580,268.551 125.018 C 268.689 125.376,268.623 125.538,268.395 125.397 C 268.178 125.263,268.000 125.363,268.000 125.619 C 268.000 125.881,267.721 125.979,267.363 125.841 C 266.940 125.679,266.657 125.862,266.520 126.385 C 266.406 126.819,265.977 127.280,265.565 127.411 C 265.153 127.542,264.834 127.773,264.855 127.924 C 264.975 128.765,264.731 129.149,264.206 128.947 C 263.815 128.797,263.474 129.080,263.212 129.770 C 262.992 130.348,262.565 130.915,262.263 131.031 C 261.953 131.150,261.762 131.678,261.825 132.244 C 261.902 132.950,261.678 133.365,261.067 133.644 C 260.305 133.993,260.185 134.414,260.074 137.120 C 260.005 138.814,259.754 140.380,259.516 140.600 C 259.214 140.879,259.180 140.830,259.403 140.438 C 259.610 140.076,259.570 139.971,259.290 140.144 C 258.668 140.529,258.864 144.227,259.500 144.100 C 259.817 144.037,260.018 144.513,260.050 145.400 C 260.168 148.715,260.214 149.147,260.472 149.406 C 260.622 149.556,260.648 149.931,260.530 150.239 C 260.388 150.608,260.595 150.800,261.134 150.800 C 261.755 150.800,261.914 151.007,261.790 151.651 C 261.599 152.646,262.228 154.000,262.883 154.000 C 263.623 154.000,264.800 155.266,264.800 156.062 C 264.800 156.468,264.967 156.800,265.171 156.800 C 265.376 156.800,265.858 157.115,266.243 157.500 C 266.628 157.885,267.128 158.200,267.353 158.200 C 267.579 158.200,267.862 158.560,267.982 159.000 C 268.133 159.554,268.570 159.818,269.400 159.860 C 271.120 159.945,271.089 159.931,271.296 160.722 C 271.441 161.277,271.939 161.466,273.442 161.537 C 276.057 161.660,276.799 161.923,276.806 162.727 C 276.811 163.257,276.885 163.285,277.156 162.857 C 277.400 162.472,277.581 162.445,277.778 162.765 C 278.249 163.527,283.112 163.149,282.907 162.367 C 282.771 161.845,283.184 161.717,285.247 161.643 C 288.094 161.540,288.550 161.367,288.223 160.515 C 288.066 160.106,288.175 159.982,288.562 160.130 C 289.446 160.469,291.400 159.809,291.400 159.171 C 291.400 158.857,291.834 158.539,292.365 158.464 C 293.562 158.295,294.430 157.461,294.510 156.404 C 294.543 155.962,294.813 155.600,295.109 155.600 C 295.414 155.600,295.524 155.800,295.362 156.062 C 295.181 156.354,295.253 156.415,295.557 156.226 C 295.822 156.063,295.988 155.630,295.926 155.265 C 295.864 154.899,296.148 154.150,296.556 153.600 C 296.982 153.026,297.198 152.898,297.062 153.300 C 296.932 153.685,296.999 154.000,297.213 154.000 C 297.426 154.000,297.600 153.550,297.600 153.000 C 297.600 152.123,297.953 151.824,298.853 151.937 C 298.992 151.954,299.099 151.751,299.090 151.484 C 299.009 149.028,299.260 147.600,299.773 147.600 C 301.116 147.600,301.262 138.110,299.934 137.153 C 299.441 136.797,299.200 136.119,299.200 135.085 C 299.200 133.344,298.618 132.000,297.863 132.000 C 297.546 132.000,297.385 131.548,297.437 130.801 C 297.483 130.142,297.370 129.695,297.187 129.808 C 297.004 129.921,296.601 129.652,296.291 129.209 C 295.982 128.767,295.600 128.533,295.443 128.690 C 295.286 128.847,295.276 128.666,295.422 128.288 C 295.604 127.813,295.486 127.600,295.043 127.600 C 294.674 127.600,294.400 127.270,294.400 126.827 C 294.400 126.226,294.131 126.061,293.194 126.088 C 291.917 126.124,291.400 125.830,291.400 125.067 C 291.400 124.810,290.995 124.542,290.500 124.472 C 289.671 124.354,289.405 123.948,289.570 123.049 C 289.605 122.856,289.311 122.782,288.917 122.886 C 288.244 123.062,288.207 122.626,288.317 115.737 L 288.434 108.400 326.617 108.400 L 364.800 108.400 364.810 110.900 C 364.842 119.417,364.969 125.165,365.120 125.013 C 366.098 124.035,366.400 126.393,366.431 135.271 C 366.466 145.230,366.537 146.000,367.427 146.000 C 368.047 146.000,368.095 146.958,368.014 157.732 C 367.981 162.139,368.077 163.202,368.486 162.955 C 368.873 162.723,368.897 162.790,368.585 163.223 C 367.916 164.153,367.822 166.156,368.465 165.768 C 368.840 165.543,368.821 165.672,368.400 166.200 C 367.919 166.805,367.912 166.886,368.368 166.611 C 368.797 166.352,368.872 166.436,368.673 166.955 C 368.527 167.335,368.574 167.540,368.777 167.414 C 369.473 166.984,369.553 167.874,369.671 177.289 C 369.736 182.481,369.910 186.655,370.058 186.564 C 370.205 186.473,370.231 186.759,370.116 187.199 C 369.970 187.756,370.103 188.000,370.553 188.000 C 371.205 188.000,371.433 193.397,371.217 203.709 C 371.143 207.223,371.397 208.400,372.227 208.400 C 372.770 208.400,373.064 216.179,372.806 223.700 C 372.760 225.040,372.897 225.602,373.270 225.606 C 373.693 225.611,373.697 225.678,373.291 225.935 C 372.582 226.385,372.849 228.833,373.700 229.693 C 374.320 230.319,374.400 231.316,374.400 238.376 C 374.400 243.775,374.543 246.441,374.843 246.626 C 375.158 246.821,375.143 246.988,374.791 247.205 C 374.520 247.373,374.423 247.714,374.576 247.962 C 374.730 248.210,375.021 248.311,375.223 248.186 C 375.425 248.061,375.484 248.238,375.353 248.579 C 375.222 248.921,374.954 249.200,374.757 249.200 C 374.239 249.200,374.504 250.122,375.173 250.647 C 375.618 250.995,375.773 252.520,375.867 257.448 C 375.933 260.942,376.057 264.385,376.141 265.100 C 376.226 265.815,376.127 266.400,375.921 266.400 C 375.715 266.400,375.643 266.715,375.761 267.100 C 375.879 267.485,376.018 268.475,376.069 269.300 C 376.153 270.636,376.403 270.968,377.249 270.864 C 377.386 270.847,377.420 273.094,377.325 275.856 C 377.195 279.605,377.268 280.805,377.615 280.591 C 377.957 280.379,377.972 280.506,377.671 281.068 C 377.109 282.117,377.370 289.041,377.999 289.799 C 378.274 290.130,378.364 290.400,378.200 290.400 C 378.036 290.400,378.133 290.679,378.416 291.019 C 378.802 291.485,378.940 294.145,378.970 301.719 C 379.008 311.224,379.267 313.662,380.202 313.300 C 380.344 313.245,380.455 317.070,380.448 321.800 C 380.439 327.691,380.571 330.400,380.867 330.400 C 381.172 330.400,381.174 330.550,380.872 330.913 C 380.615 331.223,380.585 331.652,380.796 331.994 C 380.989 332.306,381.058 332.705,380.950 332.881 C 380.842 333.056,381.033 333.200,381.376 333.200 C 382.079 333.200,382.029 332.354,382.079 345.089 C 382.097 349.758,382.230 353.505,382.375 353.415 C 383.377 352.796,383.601 354.158,383.621 361.008 C 383.633 365.146,383.810 368.371,384.040 368.648 C 384.307 368.969,384.300 369.215,384.019 369.388 C 383.318 369.821,383.503 373.641,384.252 374.189 C 384.651 374.480,384.982 375.470,385.103 376.733 L 385.302 378.800 200.051 378.800 L 14.800 378.800 14.800 377.187 C 14.800 376.123,15.004 375.497,15.400 375.345 C 15.730 375.218,16.000 374.943,16.000 374.734 C 16.000 374.524,15.775 374.484,15.500 374.645 C 15.225 374.806,15.330 374.561,15.733 374.100 C 16.179 373.592,16.438 372.740,16.393 371.932 C 15.980 364.499,16.444 353.914,17.191 353.718 C 17.965 353.516,18.085 352.693,17.482 351.728 C 17.320 351.468,17.379 351.137,17.613 350.992 C 17.904 350.812,17.875 350.526,17.519 350.088 C 17.146 349.626,17.138 349.529,17.492 349.742 C 17.875 349.972,17.984 348.207,17.982 341.764 C 17.979 334.143,18.038 333.449,18.725 332.968 C 19.415 332.484,19.474 331.720,19.525 322.723 C 19.568 315.056,19.687 313.028,20.090 313.133 C 20.370 313.207,20.482 313.149,20.338 313.005 C 20.195 312.861,20.303 312.307,20.580 311.774 C 20.947 311.066,21.072 308.164,21.041 301.002 C 21.015 294.711,21.143 291.198,21.400 291.194 C 21.620 291.191,21.530 291.013,21.200 290.800 C 20.764 290.518,20.743 290.411,21.124 290.406 C 21.417 290.403,21.522 290.197,21.362 289.938 C 21.184 289.650,21.252 289.585,21.545 289.766 C 21.802 289.925,21.917 290.210,21.800 290.400 C 21.683 290.590,21.770 290.858,21.993 290.996 C 22.217 291.134,22.414 291.012,22.432 290.724 C 22.450 290.436,22.532 289.339,22.615 288.287 C 22.727 286.870,22.641 286.449,22.283 286.664 C 21.911 286.887,21.907 286.821,22.269 286.373 C 22.588 285.979,22.739 283.510,22.743 278.657 C 22.747 272.543,22.844 271.414,23.419 270.779 C 24.270 269.838,24.778 260.800,23.979 260.800 C 23.624 260.800,23.617 260.662,23.950 260.261 C 24.226 259.928,24.379 258.063,24.351 255.390 C 24.312 251.677,24.406 250.985,25.012 250.542 C 25.626 250.093,25.645 249.934,25.159 249.336 C 24.851 248.956,24.813 248.774,25.073 248.930 C 25.432 249.145,25.556 246.980,25.585 240.002 C 25.606 234.936,25.794 230.343,26.002 229.795 C 26.429 228.672,26.897 228.420,26.550 229.500 C 26.371 230.056,26.407 230.084,26.726 229.635 C 26.947 229.324,27.134 226.624,27.142 223.635 C 27.179 209.282,27.235 207.036,27.541 207.519 C 28.216 208.582,28.857 206.933,28.782 204.326 C 28.502 194.640,28.802 188.093,29.533 187.902 C 30.337 187.691,30.539 186.374,29.839 185.906 C 29.542 185.707,29.571 185.610,29.928 185.606 C 30.311 185.602,30.440 184.967,30.396 183.300 C 30.153 174.174,30.418 167.232,31.000 167.455 C 31.330 167.582,31.623 167.486,31.650 167.243 C 31.677 166.999,31.745 166.440,31.800 166.000 C 31.855 165.560,31.923 160.901,31.950 155.647 C 31.998 146.533,32.036 146.084,32.780 145.889 C 33.508 145.699,33.559 145.304,33.552 139.943 C 33.531 125.678,33.529 125.712,34.378 125.490 C 35.190 125.277,35.399 123.605,34.615 123.594 C 34.387 123.591,34.460 123.423,34.777 123.223 C 35.249 122.924,35.267 122.665,34.874 121.803 C 34.610 121.223,34.556 120.849,34.755 120.972 C 34.960 121.099,35.125 119.179,35.139 116.497 C 35.152 113.914,35.171 111.035,35.181 110.100 L 35.200 108.400 73.400 108.400 L 111.600 108.400 111.600 115.824 M121.653 138.330 C 122.335 138.375,122.781 138.683,122.916 139.200 C 123.031 139.640,123.412 140.000,123.763 140.000 C 124.794 140.000,124.676 144.403,123.637 144.674 C 123.217 144.784,122.796 145.172,122.701 145.537 C 122.432 146.566,118.155 146.235,117.875 145.164 C 117.742 144.658,117.457 144.480,117.037 144.641 C 116.417 144.879,116.162 144.021,116.383 142.443 C 116.426 142.136,116.223 141.734,115.931 141.549 C 115.531 141.295,115.524 141.211,115.900 141.206 C 116.175 141.203,116.400 140.924,116.400 140.587 C 116.400 140.250,116.773 139.836,117.230 139.667 C 117.686 139.499,118.046 139.234,118.030 139.080 C 117.929 138.130,118.098 138.095,121.653 138.330 M282.613 139.303 C 283.865 140.556,284.313 144.600,283.200 144.600 C 282.870 144.600,282.510 144.926,282.400 145.324 C 282.290 145.722,282.065 146.037,281.900 146.024 C 281.735 146.011,280.526 146.000,279.213 146.000 C 277.323 146.000,276.870 145.882,277.041 145.436 C 277.172 145.097,276.927 144.767,276.429 144.609 C 275.247 144.234,275.170 140.000,276.345 140.000 C 276.891 140.000,277.062 139.747,276.986 139.053 C 276.825 137.586,281.085 137.776,282.613 139.303 " stroke="none" fill="#d4b49c" fill-rule="evenodd"></path><path id="path1" d="M47.869 93.100 C 59.567 93.159,78.827 93.159,90.669 93.100 C 102.511 93.041,92.940 92.993,69.400 92.993 C 45.860 92.993,36.171 93.041,47.869 93.100 M164.300 93.100 C 183.935 93.157,216.065 93.157,235.700 93.100 C 255.335 93.043,239.270 92.996,200.000 92.996 C 160.730 92.996,144.665 93.043,164.300 93.100 M309.500 93.100 C 321.215 93.159,340.385 93.159,352.100 93.100 C 363.815 93.041,354.230 92.993,330.800 92.993 C 307.370 92.993,297.785 93.041,309.500 93.100 M377.200 94.986 C 377.200 95.088,377.556 95.362,377.991 95.595 C 378.636 95.941,378.739 95.906,378.548 95.409 C 378.341 94.869,377.200 94.511,377.200 94.986 M380.400 115.738 C 380.400 116.102,380.715 116.413,381.100 116.428 C 381.699 116.452,381.684 116.506,381.000 116.800 C 380.237 117.128,380.241 117.145,381.100 117.172 C 382.213 117.207,382.246 116.747,381.200 115.800 C 380.481 115.149,380.400 115.143,380.400 115.738 M18.562 116.458 C 17.804 117.312,17.805 117.314,18.700 116.844 C 19.195 116.584,19.600 116.198,19.600 115.986 C 19.600 115.418,19.409 115.505,18.562 116.458 M107.791 125.209 C 107.189 125.875,107.173 126.000,107.689 126.000 C 108.457 126.000,109.372 124.953,108.873 124.645 C 108.672 124.521,108.185 124.775,107.791 125.209 M291.369 125.066 C 291.422 125.433,291.896 125.892,292.422 126.086 L 293.377 126.440 292.419 125.420 C 291.287 124.215,291.241 124.200,291.369 125.066 M100.928 151.395 C 100.975 151.862,101.338 152.225,101.805 152.272 C 102.381 152.332,102.414 152.299,101.925 152.152 C 101.553 152.042,101.158 151.647,101.048 151.275 C 100.901 150.786,100.868 150.819,100.928 151.395 M298.800 151.121 C 298.800 151.372,298.488 151.474,298.100 151.350 C 297.564 151.177,297.528 151.216,297.945 151.514 C 298.406 151.843,298.406 151.937,297.945 152.120 C 297.546 152.279,297.576 152.345,298.057 152.368 C 298.705 152.400,299.417 151.284,299.009 150.876 C 298.894 150.761,298.800 150.871,298.800 151.121 M137.384 153.227 C 137.239 153.461,137.216 153.749,137.333 153.867 C 137.620 154.153,138.400 153.648,138.400 153.176 C 138.400 152.665,137.709 152.699,137.384 153.227 M296.299 153.789 C 295.911 154.323,295.765 154.855,295.972 154.983 C 296.395 155.244,296.924 154.540,297.086 153.500 C 297.227 152.597,297.144 152.627,296.299 153.789 M103.032 153.948 C 102.909 154.147,103.077 154.532,103.404 154.804 C 103.889 155.206,104.000 155.181,104.000 154.673 C 104.000 153.926,103.348 153.438,103.032 153.948 M263.369 154.667 C 263.422 155.033,263.782 155.380,264.168 155.436 C 264.835 155.534,264.835 155.501,264.173 154.770 C 263.322 153.830,263.244 153.820,263.369 154.667 M294.533 156.184 C 294.533 156.524,294.876 156.800,295.300 156.800 C 295.735 156.800,295.995 156.584,295.900 156.300 C 295.654 155.562,294.533 155.466,294.533 156.184 M383.867 157.467 C 383.727 157.606,383.925 157.977,384.306 158.290 C 384.688 158.603,384.787 158.753,384.528 158.623 C 384.268 158.493,383.942 158.570,383.804 158.793 C 383.665 159.019,383.920 159.200,384.376 159.200 C 384.829 159.200,385.194 159.065,385.187 158.900 C 385.164 158.341,384.122 157.211,383.867 157.467 M108.060 158.780 C 108.148 159.044,108.351 159.246,108.510 159.230 C 108.988 159.181,108.896 158.632,108.380 158.460 C 108.116 158.372,107.972 158.516,108.060 158.780 M288.171 160.800 C 288.171 161.240,288.392 161.600,288.662 161.600 C 289.428 161.600,289.764 160.749,289.151 160.361 C 288.334 159.844,288.171 159.917,288.171 160.800 M13.784 178.427 C 13.639 178.661,13.616 178.949,13.733 179.067 C 14.020 179.353,14.800 178.848,14.800 178.376 C 14.800 177.865,14.109 177.899,13.784 178.427 M27.232 208.100 C 27.196 209.342,27.405 209.452,28.229 208.629 C 29.006 207.851,29.015 206.924,28.239 207.568 C 27.808 207.925,27.630 207.913,27.470 207.517 C 27.356 207.233,27.249 207.495,27.232 208.100 M10.093 223.600 C 10.093 224.370,10.175 224.685,10.276 224.300 C 10.376 223.915,10.376 223.285,10.276 222.900 C 10.175 222.515,10.093 222.830,10.093 223.600 M9.186 240.617 C 8.769 241.119,8.771 241.324,9.196 241.717 C 9.612 242.102,9.672 242.068,9.490 241.549 C 9.365 241.191,9.464 240.696,9.711 240.449 C 9.958 240.202,10.056 240.000,9.929 240.000 C 9.802 240.000,9.468 240.278,9.186 240.617 M374.400 248.667 C 374.400 248.960,374.561 249.200,374.757 249.200 C 374.954 249.200,375.207 248.960,375.319 248.667 C 375.432 248.373,375.271 248.133,374.962 248.133 C 374.653 248.133,374.400 248.373,374.400 248.667 M375.728 255.600 C 375.728 257.030,375.801 257.615,375.889 256.900 C 375.978 256.185,375.978 255.015,375.889 254.300 C 375.801 253.585,375.728 254.170,375.728 255.600 M8.483 257.451 C 8.422 260.130,8.240 261.235,7.800 261.600 C 7.470 261.874,7.214 262.391,7.232 262.749 C 7.258 263.296,7.300 263.304,7.496 262.800 C 7.625 262.470,7.978 262.017,8.281 261.793 C 8.700 261.485,8.800 260.474,8.699 257.593 L 8.566 253.800 8.483 257.451 M375.632 263.100 C 375.614 264.915,375.739 266.400,375.910 266.400 C 376.204 266.400,376.118 261.040,375.810 260.200 C 375.729 259.980,375.649 261.285,375.632 263.100 M391.711 261.581 C 391.823 262.010,391.709 262.442,391.458 262.540 C 391.206 262.638,391.384 262.700,391.853 262.678 C 392.396 262.652,392.661 262.412,392.583 262.018 C 392.516 261.678,392.447 261.265,392.431 261.100 C 392.414 260.935,392.199 260.800,391.953 260.800 C 391.707 260.800,391.598 261.151,391.711 261.581 M6.200 282.306 C 5.836 282.574,5.448 283.600,5.711 283.600 C 5.772 283.600,6.130 283.240,6.507 282.800 C 7.177 282.017,6.994 281.723,6.200 282.306 M377.234 288.600 C 377.183 289.988,377.992 292.311,378.608 292.548 C 379.389 292.847,379.356 292.401,378.507 291.189 C 378.126 290.645,377.868 290.200,377.933 290.200 C 377.998 290.200,377.964 289.930,377.858 289.600 C 377.295 287.861,377.263 287.810,377.234 288.600 M21.362 289.938 C 21.522 290.197,21.417 290.403,21.124 290.406 C 20.708 290.411,20.713 290.484,21.145 290.758 C 21.489 290.976,21.531 291.158,21.258 291.252 C 20.970 291.350,20.955 291.601,21.213 292.000 C 21.552 292.526,21.647 292.527,21.977 292.013 C 22.211 291.650,22.212 291.256,21.981 290.977 C 21.775 290.729,21.707 290.426,21.830 290.303 C 21.953 290.181,21.833 289.944,21.565 289.778 C 21.253 289.585,21.179 289.643,21.362 289.938 M4.700 302.832 C 3.928 303.282,3.758 304.000,4.424 304.000 C 4.657 304.000,4.736 303.820,4.600 303.600 C 4.464 303.380,4.528 303.200,4.743 303.200 C 4.958 303.200,5.224 303.425,5.335 303.700 C 5.446 303.975,5.551 303.795,5.568 303.300 C 5.604 302.274,5.632 302.289,4.700 302.832 M3.001 323.598 C 2.559 324.314,2.431 325.628,2.827 325.383 C 3.040 325.252,3.109 324.977,2.983 324.772 C 2.856 324.568,3.033 324.400,3.376 324.400 C 3.719 324.400,4.000 324.130,4.000 323.800 C 4.000 323.122,3.374 322.995,3.001 323.598 M397.694 344.700 C 397.779 345.085,398.092 345.345,398.391 345.277 C 398.812 345.183,398.831 345.281,398.474 345.711 C 398.120 346.137,398.135 346.267,398.540 346.267 C 399.163 346.267,399.257 345.210,398.696 344.500 C 398.120 343.769,397.517 343.890,397.694 344.700 M382.000 352.724 C 382.000 353.308,383.129 354.605,383.401 354.333 C 383.547 354.186,383.292 353.692,382.833 353.233 C 382.375 352.775,382.000 352.546,382.000 352.724 " stroke="none" fill="#d8b49c" fill-rule="evenodd"></path><path id="path2" d="M47.869 93.100 C 59.567 93.159,78.827 93.159,90.669 93.100 C 102.511 93.041,92.940 92.993,69.400 92.993 C 45.860 92.993,36.171 93.041,47.869 93.100 M164.300 93.100 C 183.935 93.157,216.065 93.157,235.700 93.100 C 255.335 93.043,239.270 92.996,200.000 92.996 C 160.730 92.996,144.665 93.043,164.300 93.100 M309.500 93.100 C 321.215 93.159,340.385 93.159,352.100 93.100 C 363.815 93.041,354.230 92.993,330.800 92.993 C 307.370 92.993,297.785 93.041,309.500 93.100 M377.200 94.986 C 377.200 95.088,377.556 95.362,377.991 95.595 C 378.636 95.941,378.739 95.906,378.548 95.409 C 378.341 94.869,377.200 94.511,377.200 94.986 M380.400 115.738 C 380.400 116.102,380.715 116.413,381.100 116.428 C 381.699 116.452,381.684 116.506,381.000 116.800 C 380.237 117.128,380.241 117.145,381.100 117.172 C 382.213 117.207,382.246 116.747,381.200 115.800 C 380.481 115.149,380.400 115.143,380.400 115.738 M18.562 116.458 C 17.804 117.312,17.805 117.314,18.700 116.844 C 19.195 116.584,19.600 116.198,19.600 115.986 C 19.600 115.418,19.409 115.505,18.562 116.458 M107.791 125.209 C 107.189 125.875,107.173 126.000,107.689 126.000 C 108.457 126.000,109.372 124.953,108.873 124.645 C 108.672 124.521,108.185 124.775,107.791 125.209 M291.369 125.066 C 291.422 125.433,291.896 125.892,292.422 126.086 L 293.377 126.440 292.419 125.420 C 291.287 124.215,291.241 124.200,291.369 125.066 M100.928 151.395 C 100.975 151.862,101.338 152.225,101.805 152.272 C 102.381 152.332,102.414 152.299,101.925 152.152 C 101.553 152.042,101.158 151.647,101.048 151.275 C 100.901 150.786,100.868 150.819,100.928 151.395 M298.800 151.121 C 298.800 151.372,298.488 151.474,298.100 151.350 C 297.564 151.177,297.528 151.216,297.945 151.514 C 298.406 151.843,298.406 151.937,297.945 152.120 C 297.546 152.279,297.576 152.345,298.057 152.368 C 298.705 152.400,299.417 151.284,299.009 150.876 C 298.894 150.761,298.800 150.871,298.800 151.121 M137.384 153.227 C 137.239 153.461,137.216 153.749,137.333 153.867 C 137.620 154.153,138.400 153.648,138.400 153.176 C 138.400 152.665,137.709 152.699,137.384 153.227 M296.299 153.789 C 295.911 154.323,295.765 154.855,295.972 154.983 C 296.395 155.244,296.924 154.540,297.086 153.500 C 297.227 152.597,297.144 152.627,296.299 153.789 M103.032 153.948 C 102.909 154.147,103.077 154.532,103.404 154.804 C 103.889 155.206,104.000 155.181,104.000 154.673 C 104.000 153.926,103.348 153.438,103.032 153.948 M263.369 154.667 C 263.422 155.033,263.782 155.380,264.168 155.436 C 264.835 155.534,264.835 155.501,264.173 154.770 C 263.322 153.830,263.244 153.820,263.369 154.667 M294.533 156.184 C 294.533 156.524,294.876 156.800,295.300 156.800 C 295.735 156.800,295.995 156.584,295.900 156.300 C 295.654 155.562,294.533 155.466,294.533 156.184 M383.867 157.467 C 383.727 157.606,383.925 157.977,384.306 158.290 C 384.688 158.603,384.787 158.753,384.528 158.623 C 384.268 158.493,383.942 158.570,383.804 158.793 C 383.665 159.019,383.920 159.200,384.376 159.200 C 384.829 159.200,385.194 159.065,385.187 158.900 C 385.164 158.341,384.122 157.211,383.867 157.467 M108.060 158.780 C 108.148 159.044,108.351 159.246,108.510 159.230 C 108.988 159.181,108.896 158.632,108.380 158.460 C 108.116 158.372,107.972 158.516,108.060 158.780 M288.171 160.800 C 288.171 161.240,288.392 161.600,288.662 161.600 C 289.428 161.600,289.764 160.749,289.151 160.361 C 288.334 159.844,288.171 159.917,288.171 160.800 M13.784 178.427 C 13.639 178.661,13.616 178.949,13.733 179.067 C 14.020 179.353,14.800 178.848,14.800 178.376 C 14.800 177.865,14.109 177.899,13.784 178.427 M27.232 208.100 C 27.196 209.342,27.405 209.452,28.229 208.629 C 29.006 207.851,29.015 206.924,28.239 207.568 C 27.808 207.925,27.630 207.913,27.470 207.517 C 27.356 207.233,27.249 207.495,27.232 208.100 M10.093 223.600 C 10.093 224.370,10.175 224.685,10.276 224.300 C 10.376 223.915,10.376 223.285,10.276 222.900 C 10.175 222.515,10.093 222.830,10.093 223.600 M9.186 240.617 C 8.769 241.119,8.771 241.324,9.196 241.717 C 9.612 242.102,9.672 242.068,9.490 241.549 C 9.365 241.191,9.464 240.696,9.711 240.449 C 9.958 240.202,10.056 240.000,9.929 240.000 C 9.802 240.000,9.468 240.278,9.186 240.617 M374.400 248.667 C 374.400 248.960,374.561 249.200,374.757 249.200 C 374.954 249.200,375.207 248.960,375.319 248.667 C 375.432 248.373,375.271 248.133,374.962 248.133 C 374.653 248.133,374.400 248.373,374.400 248.667 M375.728 255.600 C 375.728 257.030,375.801 257.615,375.889 256.900 C 375.978 256.185,375.978 255.015,375.889 254.300 C 375.801 253.585,375.728 254.170,375.728 255.600 M8.483 257.451 C 8.422 260.130,8.240 261.235,7.800 261.600 C 7.470 261.874,7.214 262.391,7.232 262.749 C 7.258 263.296,7.300 263.304,7.496 262.800 C 7.625 262.470,7.978 262.017,8.281 261.793 C 8.700 261.485,8.800 260.474,8.699 257.593 L 8.566 253.800 8.483 257.451 M375.632 263.100 C 375.614 264.915,375.739 266.400,375.910 266.400 C 376.204 266.400,376.118 261.040,375.810 260.200 C 375.729 259.980,375.649 261.285,375.632 263.100 M391.711 261.581 C 391.823 262.010,391.709 262.442,391.458 262.540 C 391.206 262.638,391.384 262.700,391.853 262.678 C 392.396 262.652,392.661 262.412,392.583 262.018 C 392.516 261.678,392.447 261.265,392.431 261.100 C 392.414 260.935,392.199 260.800,391.953 260.800 C 391.707 260.800,391.598 261.151,391.711 261.581 M6.200 282.306 C 5.836 282.574,5.448 283.600,5.711 283.600 C 5.772 283.600,6.130 283.240,6.507 282.800 C 7.177 282.017,6.994 281.723,6.200 282.306 M377.234 288.600 C 377.183 289.988,377.992 292.311,378.608 292.548 C 379.389 292.847,379.356 292.401,378.507 291.189 C 378.126 290.645,377.868 290.200,377.933 290.200 C 377.998 290.200,377.964 289.930,377.858 289.600 C 377.295 287.861,377.263 287.810,377.234 288.600 M21.362 289.938 C 21.522 290.197,21.417 290.403,21.124 290.406 C 20.708 290.411,20.713 290.484,21.145 290.758 C 21.489 290.976,21.531 291.158,21.258 291.252 C 20.970 291.350,20.955 291.601,21.213 292.000 C 21.552 292.526,21.647 292.527,21.977 292.013 C 22.211 291.650,22.212 291.256,21.981 290.977 C 21.775 290.729,21.707 290.426,21.830 290.303 C 21.953 290.181,21.833 289.944,21.565 289.778 C 21.253 289.585,21.179 289.643,21.362 289.938 M4.700 302.832 C 3.928 303.282,3.758 304.000,4.424 304.000 C 4.657 304.000,4.736 303.820,4.600 303.600 C 4.464 303.380,4.528 303.200,4.743 303.200 C 4.958 303.200,5.224 303.425,5.335 303.700 C 5.446 303.975,5.551 303.795,5.568 303.300 C 5.604 302.274,5.632 302.289,4.700 302.832 M3.001 323.598 C 2.559 324.314,2.431 325.628,2.827 325.383 C 3.040 325.252,3.109 324.977,2.983 324.772 C 2.856 324.568,3.033 324.400,3.376 324.400 C 3.719 324.400,4.000 324.130,4.000 323.800 C 4.000 323.122,3.374 322.995,3.001 323.598 M397.694 344.700 C 397.779 345.085,398.092 345.345,398.391 345.277 C 398.812 345.183,398.831 345.281,398.474 345.711 C 398.120 346.137,398.135 346.267,398.540 346.267 C 399.163 346.267,399.257 345.210,398.696 344.500 C 398.120 343.769,397.517 343.890,397.694 344.700 M382.000 352.724 C 382.000 353.308,383.129 354.605,383.401 354.333 C 383.547 354.186,383.292 353.692,382.833 353.233 C 382.375 352.775,382.000 352.546,382.000 352.724 " stroke="none" fill="#d8b49c" fill-rule="evenodd"></path><path id="path3" d="M47.869 93.100 C 59.567 93.159,78.827 93.159,90.669 93.100 C 102.511 93.041,92.940 92.993,69.400 92.993 C 45.860 92.993,36.171 93.041,47.869 93.100 M164.300 93.100 C 183.935 93.157,216.065 93.157,235.700 93.100 C 255.335 93.043,239.270 92.996,200.000 92.996 C 160.730 92.996,144.665 93.043,164.300 93.100 M309.500 93.100 C 321.215 93.159,340.385 93.159,352.100 93.100 C 363.815 93.041,354.230 92.993,330.800 92.993 C 307.370 92.993,297.785 93.041,309.500 93.100 M377.200 94.986 C 377.200 95.088,377.556 95.362,377.991 95.595 C 378.636 95.941,378.739 95.906,378.548 95.409 C 378.341 94.869,377.200 94.511,377.200 94.986 M380.400 115.738 C 380.400 116.102,380.715 116.413,381.100 116.428 C 381.699 116.452,381.684 116.506,381.000 116.800 C 380.237 117.128,380.241 117.145,381.100 117.172 C 382.213 117.207,382.246 116.747,381.200 115.800 C 380.481 115.149,380.400 115.143,380.400 115.738 M18.562 116.458 C 17.804 117.312,17.805 117.314,18.700 116.844 C 19.195 116.584,19.600 116.198,19.600 115.986 C 19.600 115.418,19.409 115.505,18.562 116.458 M107.791 125.209 C 107.189 125.875,107.173 126.000,107.689 126.000 C 108.457 126.000,109.372 124.953,108.873 124.645 C 108.672 124.521,108.185 124.775,107.791 125.209 M291.369 125.066 C 291.422 125.433,291.896 125.892,292.422 126.086 L 293.377 126.440 292.419 125.420 C 291.287 124.215,291.241 124.200,291.369 125.066 M100.928 151.395 C 100.975 151.862,101.338 152.225,101.805 152.272 C 102.381 152.332,102.414 152.299,101.925 152.152 C 101.553 152.042,101.158 151.647,101.048 151.275 C 100.901 150.786,100.868 150.819,100.928 151.395 M298.800 151.121 C 298.800 151.372,298.488 151.474,298.100 151.350 C 297.564 151.177,297.528 151.216,297.945 151.514 C 298.406 151.843,298.406 151.937,297.945 152.120 C 297.546 152.279,297.576 152.345,298.057 152.368 C 298.705 152.400,299.417 151.284,299.009 150.876 C 298.894 150.761,298.800 150.871,298.800 151.121 M137.384 153.227 C 137.239 153.461,137.216 153.749,137.333 153.867 C 137.620 154.153,138.400 153.648,138.400 153.176 C 138.400 152.665,137.709 152.699,137.384 153.227 M296.299 153.789 C 295.911 154.323,295.765 154.855,295.972 154.983 C 296.395 155.244,296.924 154.540,297.086 153.500 C 297.227 152.597,297.144 152.627,296.299 153.789 M103.032 153.948 C 102.909 154.147,103.077 154.532,103.404 154.804 C 103.889 155.206,104.000 155.181,104.000 154.673 C 104.000 153.926,103.348 153.438,103.032 153.948 M263.369 154.667 C 263.422 155.033,263.782 155.380,264.168 155.436 C 264.835 155.534,264.835 155.501,264.173 154.770 C 263.322 153.830,263.244 153.820,263.369 154.667 M294.533 156.184 C 294.533 156.524,294.876 156.800,295.300 156.800 C 295.735 156.800,295.995 156.584,295.900 156.300 C 295.654 155.562,294.533 155.466,294.533 156.184 M383.867 157.467 C 383.727 157.606,383.925 157.977,384.306 158.290 C 384.688 158.603,384.787 158.753,384.528 158.623 C 384.268 158.493,383.942 158.570,383.804 158.793 C 383.665 159.019,383.920 159.200,384.376 159.200 C 384.829 159.200,385.194 159.065,385.187 158.900 C 385.164 158.341,384.122 157.211,383.867 157.467 M108.060 158.780 C 108.148 159.044,108.351 159.246,108.510 159.230 C 108.988 159.181,108.896 158.632,108.380 158.460 C 108.116 158.372,107.972 158.516,108.060 158.780 M288.171 160.800 C 288.171 161.240,288.392 161.600,288.662 161.600 C 289.428 161.600,289.764 160.749,289.151 160.361 C 288.334 159.844,288.171 159.917,288.171 160.800 M13.784 178.427 C 13.639 178.661,13.616 178.949,13.733 179.067 C 14.020 179.353,14.800 178.848,14.800 178.376 C 14.800 177.865,14.109 177.899,13.784 178.427 M27.232 208.100 C 27.196 209.342,27.405 209.452,28.229 208.629 C 29.006 207.851,29.015 206.924,28.239 207.568 C 27.808 207.925,27.630 207.913,27.470 207.517 C 27.356 207.233,27.249 207.495,27.232 208.100 M10.093 223.600 C 10.093 224.370,10.175 224.685,10.276 224.300 C 10.376 223.915,10.376 223.285,10.276 222.900 C 10.175 222.515,10.093 222.830,10.093 223.600 M9.186 240.617 C 8.769 241.119,8.771 241.324,9.196 241.717 C 9.612 242.102,9.672 242.068,9.490 241.549 C 9.365 241.191,9.464 240.696,9.711 240.449 C 9.958 240.202,10.056 240.000,9.929 240.000 C 9.802 240.000,9.468 240.278,9.186 240.617 M374.400 248.667 C 374.400 248.960,374.561 249.200,374.757 249.200 C 374.954 249.200,375.207 248.960,375.319 248.667 C 375.432 248.373,375.271 248.133,374.962 248.133 C 374.653 248.133,374.400 248.373,374.400 248.667 M375.728 255.600 C 375.728 257.030,375.801 257.615,375.889 256.900 C 375.978 256.185,375.978 255.015,375.889 254.300 C 375.801 253.585,375.728 254.170,375.728 255.600 M8.483 257.451 C 8.422 260.130,8.240 261.235,7.800 261.600 C 7.470 261.874,7.214 262.391,7.232 262.749 C 7.258 263.296,7.300 263.304,7.496 262.800 C 7.625 262.470,7.978 262.017,8.281 261.793 C 8.700 261.485,8.800 260.474,8.699 257.593 L 8.566 253.800 8.483 257.451 M375.632 263.100 C 375.614 264.915,375.739 266.400,375.910 266.400 C 376.204 266.400,376.118 261.040,375.810 260.200 C 375.729 259.980,375.649 261.285,375.632 263.100 M391.711 261.581 C 391.823 262.010,391.709 262.442,391.458 262.540 C 391.206 262.638,391.384 262.700,391.853 262.678 C 392.396 262.652,392.661 262.412,392.583 262.018 C 392.516 261.678,392.447 261.265,392.431 261.100 C 392.414 260.935,392.199 260.800,391.953 260.800 C 391.707 260.800,391.598 261.151,391.711 261.581 M6.200 282.306 C 5.836 282.574,5.448 283.600,5.711 283.600 C 5.772 283.600,6.130 283.240,6.507 282.800 C 7.177 282.017,6.994 281.723,6.200 282.306 M377.234 288.600 C 377.183 289.988,377.992 292.311,378.608 292.548 C 379.389 292.847,379.356 292.401,378.507 291.189 C 378.126 290.645,377.868 290.200,377.933 290.200 C 377.998 290.200,377.964 289.930,377.858 289.600 C 377.295 287.861,377.263 287.810,377.234 288.600 M21.362 289.938 C 21.522 290.197,21.417 290.403,21.124 290.406 C 20.708 290.411,20.713 290.484,21.145 290.758 C 21.489 290.976,21.531 291.158,21.258 291.252 C 20.970 291.350,20.955 291.601,21.213 292.000 C 21.552 292.526,21.647 292.527,21.977 292.013 C 22.211 291.650,22.212 291.256,21.981 290.977 C 21.775 290.729,21.707 290.426,21.830 290.303 C 21.953 290.181,21.833 289.944,21.565 289.778 C 21.253 289.585,21.179 289.643,21.362 289.938 M4.700 302.832 C 3.928 303.282,3.758 304.000,4.424 304.000 C 4.657 304.000,4.736 303.820,4.600 303.600 C 4.464 303.380,4.528 303.200,4.743 303.200 C 4.958 303.200,5.224 303.425,5.335 303.700 C 5.446 303.975,5.551 303.795,5.568 303.300 C 5.604 302.274,5.632 302.289,4.700 302.832 M3.001 323.598 C 2.559 324.314,2.431 325.628,2.827 325.383 C 3.040 325.252,3.109 324.977,2.983 324.772 C 2.856 324.568,3.033 324.400,3.376 324.400 C 3.719 324.400,4.000 324.130,4.000 323.800 C 4.000 323.122,3.374 322.995,3.001 323.598 M397.694 344.700 C 397.779 345.085,398.092 345.345,398.391 345.277 C 398.812 345.183,398.831 345.281,398.474 345.711 C 398.120 346.137,398.135 346.267,398.540 346.267 C 399.163 346.267,399.257 345.210,398.696 344.500 C 398.120 343.769,397.517 343.890,397.694 344.700 M382.000 352.724 C 382.000 353.308,383.129 354.605,383.401 354.333 C 383.547 354.186,383.292 353.692,382.833 353.233 C 382.375 352.775,382.000 352.546,382.000 352.724 " stroke="none" fill="#d8b49c" fill-rule="evenodd"></path><path id="path4" d="M47.869 93.100 C 59.567 93.159,78.827 93.159,90.669 93.100 C 102.511 93.041,92.940 92.993,69.400 92.993 C 45.860 92.993,36.171 93.041,47.869 93.100 M164.300 93.100 C 183.935 93.157,216.065 93.157,235.700 93.100 C 255.335 93.043,239.270 92.996,200.000 92.996 C 160.730 92.996,144.665 93.043,164.300 93.100 M309.500 93.100 C 321.215 93.159,340.385 93.159,352.100 93.100 C 363.815 93.041,354.230 92.993,330.800 92.993 C 307.370 92.993,297.785 93.041,309.500 93.100 M377.200 94.986 C 377.200 95.088,377.556 95.362,377.991 95.595 C 378.636 95.941,378.739 95.906,378.548 95.409 C 378.341 94.869,377.200 94.511,377.200 94.986 M380.400 115.738 C 380.400 116.102,380.715 116.413,381.100 116.428 C 381.699 116.452,381.684 116.506,381.000 116.800 C 380.237 117.128,380.241 117.145,381.100 117.172 C 382.213 117.207,382.246 116.747,381.200 115.800 C 380.481 115.149,380.400 115.143,380.400 115.738 M18.562 116.458 C 17.804 117.312,17.805 117.314,18.700 116.844 C 19.195 116.584,19.600 116.198,19.600 115.986 C 19.600 115.418,19.409 115.505,18.562 116.458 M107.791 125.209 C 107.189 125.875,107.173 126.000,107.689 126.000 C 108.457 126.000,109.372 124.953,108.873 124.645 C 108.672 124.521,108.185 124.775,107.791 125.209 M291.369 125.066 C 291.422 125.433,291.896 125.892,292.422 126.086 L 293.377 126.440 292.419 125.420 C 291.287 124.215,291.241 124.200,291.369 125.066 M100.928 151.395 C 100.975 151.862,101.338 152.225,101.805 152.272 C 102.381 152.332,102.414 152.299,101.925 152.152 C 101.553 152.042,101.158 151.647,101.048 151.275 C 100.901 150.786,100.868 150.819,100.928 151.395 M298.800 151.121 C 298.800 151.372,298.488 151.474,298.100 151.350 C 297.564 151.177,297.528 151.216,297.945 151.514 C 298.406 151.843,298.406 151.937,297.945 152.120 C 297.546 152.279,297.576 152.345,298.057 152.368 C 298.705 152.400,299.417 151.284,299.009 150.876 C 298.894 150.761,298.800 150.871,298.800 151.121 M137.384 153.227 C 137.239 153.461,137.216 153.749,137.333 153.867 C 137.620 154.153,138.400 153.648,138.400 153.176 C 138.400 152.665,137.709 152.699,137.384 153.227 M296.299 153.789 C 295.911 154.323,295.765 154.855,295.972 154.983 C 296.395 155.244,296.924 154.540,297.086 153.500 C 297.227 152.597,297.144 152.627,296.299 153.789 M103.032 153.948 C 102.909 154.147,103.077 154.532,103.404 154.804 C 103.889 155.206,104.000 155.181,104.000 154.673 C 104.000 153.926,103.348 153.438,103.032 153.948 M263.369 154.667 C 263.422 155.033,263.782 155.380,264.168 155.436 C 264.835 155.534,264.835 155.501,264.173 154.770 C 263.322 153.830,263.244 153.820,263.369 154.667 M294.533 156.184 C 294.533 156.524,294.876 156.800,295.300 156.800 C 295.735 156.800,295.995 156.584,295.900 156.300 C 295.654 155.562,294.533 155.466,294.533 156.184 M383.867 157.467 C 383.727 157.606,383.925 157.977,384.306 158.290 C 384.688 158.603,384.787 158.753,384.528 158.623 C 384.268 158.493,383.942 158.570,383.804 158.793 C 383.665 159.019,383.920 159.200,384.376 159.200 C 384.829 159.200,385.194 159.065,385.187 158.900 C 385.164 158.341,384.122 157.211,383.867 157.467 M108.060 158.780 C 108.148 159.044,108.351 159.246,108.510 159.230 C 108.988 159.181,108.896 158.632,108.380 158.460 C 108.116 158.372,107.972 158.516,108.060 158.780 M288.171 160.800 C 288.171 161.240,288.392 161.600,288.662 161.600 C 289.428 161.600,289.764 160.749,289.151 160.361 C 288.334 159.844,288.171 159.917,288.171 160.800 M13.784 178.427 C 13.639 178.661,13.616 178.949,13.733 179.067 C 14.020 179.353,14.800 178.848,14.800 178.376 C 14.800 177.865,14.109 177.899,13.784 178.427 M27.232 208.100 C 27.196 209.342,27.405 209.452,28.229 208.629 C 29.006 207.851,29.015 206.924,28.239 207.568 C 27.808 207.925,27.630 207.913,27.470 207.517 C 27.356 207.233,27.249 207.495,27.232 208.100 M10.093 223.600 C 10.093 224.370,10.175 224.685,10.276 224.300 C 10.376 223.915,10.376 223.285,10.276 222.900 C 10.175 222.515,10.093 222.830,10.093 223.600 M9.186 240.617 C 8.769 241.119,8.771 241.324,9.196 241.717 C 9.612 242.102,9.672 242.068,9.490 241.549 C 9.365 241.191,9.464 240.696,9.711 240.449 C 9.958 240.202,10.056 240.000,9.929 240.000 C 9.802 240.000,9.468 240.278,9.186 240.617 M374.400 248.667 C 374.400 248.960,374.561 249.200,374.757 249.200 C 374.954 249.200,375.207 248.960,375.319 248.667 C 375.432 248.373,375.271 248.133,374.962 248.133 C 374.653 248.133,374.400 248.373,374.400 248.667 M375.728 255.600 C 375.728 257.030,375.801 257.615,375.889 256.900 C 375.978 256.185,375.978 255.015,375.889 254.300 C 375.801 253.585,375.728 254.170,375.728 255.600 M8.483 257.451 C 8.422 260.130,8.240 261.235,7.800 261.600 C 7.470 261.874,7.214 262.391,7.232 262.749 C 7.258 263.296,7.300 263.304,7.496 262.800 C 7.625 262.470,7.978 262.017,8.281 261.793 C 8.700 261.485,8.800 260.474,8.699 257.593 L 8.566 253.800 8.483 257.451 M375.632 263.100 C 375.614 264.915,375.739 266.400,375.910 266.400 C 376.204 266.400,376.118 261.040,375.810 260.200 C 375.729 259.980,375.649 261.285,375.632 263.100 M391.711 261.581 C 391.823 262.010,391.709 262.442,391.458 262.540 C 391.206 262.638,391.384 262.700,391.853 262.678 C 392.396 262.652,392.661 262.412,392.583 262.018 C 392.516 261.678,392.447 261.265,392.431 261.100 C 392.414 260.935,392.199 260.800,391.953 260.800 C 391.707 260.800,391.598 261.151,391.711 261.581 M6.200 282.306 C 5.836 282.574,5.448 283.600,5.711 283.600 C 5.772 283.600,6.130 283.240,6.507 282.800 C 7.177 282.017,6.994 281.723,6.200 282.306 M377.234 288.600 C 377.183 289.988,377.992 292.311,378.608 292.548 C 379.389 292.847,379.356 292.401,378.507 291.189 C 378.126 290.645,377.868 290.200,377.933 290.200 C 377.998 290.200,377.964 289.930,377.858 289.600 C 377.295 287.861,377.263 287.810,377.234 288.600 M21.362 289.938 C 21.522 290.197,21.417 290.403,21.124 290.406 C 20.708 290.411,20.713 290.484,21.145 290.758 C 21.489 290.976,21.531 291.158,21.258 291.252 C 20.970 291.350,20.955 291.601,21.213 292.000 C 21.552 292.526,21.647 292.527,21.977 292.013 C 22.211 291.650,22.212 291.256,21.981 290.977 C 21.775 290.729,21.707 290.426,21.830 290.303 C 21.953 290.181,21.833 289.944,21.565 289.778 C 21.253 289.585,21.179 289.643,21.362 289.938 M4.700 302.832 C 3.928 303.282,3.758 304.000,4.424 304.000 C 4.657 304.000,4.736 303.820,4.600 303.600 C 4.464 303.380,4.528 303.200,4.743 303.200 C 4.958 303.200,5.224 303.425,5.335 303.700 C 5.446 303.975,5.551 303.795,5.568 303.300 C 5.604 302.274,5.632 302.289,4.700 302.832 M3.001 323.598 C 2.559 324.314,2.431 325.628,2.827 325.383 C 3.040 325.252,3.109 324.977,2.983 324.772 C 2.856 324.568,3.033 324.400,3.376 324.400 C 3.719 324.400,4.000 324.130,4.000 323.800 C 4.000 323.122,3.374 322.995,3.001 323.598 M397.694 344.700 C 397.779 345.085,398.092 345.345,398.391 345.277 C 398.812 345.183,398.831 345.281,398.474 345.711 C 398.120 346.137,398.135 346.267,398.540 346.267 C 399.163 346.267,399.257 345.210,398.696 344.500 C 398.120 343.769,397.517 343.890,397.694 344.700 M382.000 352.724 C 382.000 353.308,383.129 354.605,383.401 354.333 C 383.547 354.186,383.292 353.692,382.833 353.233 C 382.375 352.775,382.000 352.546,382.000 352.724 " stroke="none" fill="#d8b49c" fill-rule="evenodd"></path></g></svg>