<?xml version="1.0" encoding="UTF-8"?>
<svg id="Layer_1" data-name="Layer 1" xmlns="http://www.w3.org/2000/svg" viewBox="0 0 120 120">
  <defs>
    <style>
      .cls-1 {
        fill: #f15a24;
      }
    </style>
  </defs>
  <path class="cls-1" d="M63.03,0c2.42,.39,4.87,.67,7.26,1.2,17.77,3.96,32.04,19.02,34.91,36.91,.54,3.34,.65,6.73,.97,10.13,1.14,.11,2.48,.11,3.76,.38,4.34,.94,6.95,3.82,8.44,7.82,1.66,4.44,1.85,9.08,1.49,13.74-.13,1.79-.41,3.57-.83,5.32-1.71,6.98-5.74,10.18-13.09,10.35v1.33c-.07,3.59,.14,7.2-.26,10.76-.94,8.29-8.41,14.84-16.77,14.99-3.63,.06-7.26,.03-10.9,0-.69,0-1.07,.14-1.41,.84-1.95,4.02-5.21,6.13-9.68,6.18-2.92,.03-5.89,.16-8.77-.23-5.34-.74-9.04-5.66-8.67-11.07,.36-5.32,4.84-9.65,10.19-9.74,3-.06,6.04-.16,9.01,.18,3.72,.41,6.35,2.63,7.93,6.01,.31,.63,.63,.83,1.3,.83,3.47-.03,6.95,.02,10.43-.02,5.95-.06,10.48-4.64,10.56-10.59v-3.46h-10.17c-2.44,0-3.88-1.43-3.89-3.84V46.31c0-2.49,1.43-3.88,3.95-3.89h9.82c-1-17.35-16.51-35.7-39.21-35.36-22.39,.34-37.15,18.7-38.01,35.36,3.32,0,6.63-.06,9.94,.04,.87,.02,1.97,.31,2.54,.89,.72,.74,1.16,1.71,1.23,2.74,.08,14.02,.06,28.04,.05,42.06,0,2.21-1.47,3.69-3.67,3.7-4.57,.02-9.14,.02-13.71,0-2.21,0-3.66-1.47-3.7-3.66v-2.28c-1.18-.08-2.31-.05-3.41-.25-4.1-.72-6.99-3.13-8.51-6.92-.94-2.32-1.3-4.87-1.92-7.32-.09-.37-.16-.75-.23-1.13v-6.57c.08-.38,.14-.75,.23-1.12,.63-2.44,1-4.99,1.93-7.31,1.4-3.52,4.07-5.86,7.87-6.68,1.28-.27,2.61-.28,4.03-.43-.03-.59-.03-1.19,0-1.78,.37-3.6,.35-7.3,1.25-10.77C19.94,17.74,31.28,6.28,49.14,1.36c2.54-.7,5.2-.92,7.81-1.36h6.08ZM28.04,84.77V49.54h-6.89v35.23h6.89Zm63.91-35.27v35.23h6.89V49.5h-6.89ZM14.02,55.59c-2.43-.63-4.19,.09-5.3,2.19-.44,.83-.77,1.7-.98,2.61-.89,3.77-.99,7.68-.31,11.49,.29,1.68,.83,3.31,1.6,4.83,.99,1.92,2.96,2.5,5.01,1.84v-22.97Zm91.93,23.06c2.73,.46,4.33-.31,5.45-2.65,.37-.77,.65-1.58,.85-2.42,.87-3.77,.97-7.68,.29-11.49-.28-1.64-.81-3.23-1.56-4.72-1-1.91-3.07-2.47-5.01-1.69v22.97Zm-42.46,27.27c-1.17,0-2.34-.03-3.5,0-.91,.02-1.78,.39-2.43,1.03-.64,.65-1.01,1.52-1.02,2.43,0,.91,.34,1.79,.97,2.45,.63,.66,1.49,1.05,2.4,1.09,2.38,.05,4.75,.05,7.13,0,.91-.03,1.77-.42,2.41-1.08,.63-.66,.98-1.54,.98-2.45,0-.91-.37-1.79-1.01-2.44-.64-.65-1.51-1.03-2.42-1.05-1.17-.03-2.34,0-3.51,0Z"/>
</svg>