<?xml version="1.0" encoding="UTF-8"?>
<svg id="Layer_1" data-name="Layer 1" xmlns="http://www.w3.org/2000/svg" viewBox="0 0 46.68 46.87">
  <defs>
    <style>
      .cls-1 {
        fill: #969696;
      }
    </style>
  </defs>
  <path class="cls-1" d="M23.34,46.87C10.47,46.87,0,36.36,0,23.44S10.47,0,23.34,0s23.34,10.51,23.34,23.44-10.47,23.44-23.34,23.44Zm0-43.87C12.12,3,3,12.17,3,23.44s9.12,20.44,20.34,20.44,20.34-9.17,20.34-20.44S34.55,3,23.34,3Z"/>
  <path class="cls-1" d="M22.56,33.4l-2.18-5.74c-.09-.25-.24-.48-.43-.67s-.41-.34-.66-.43l-5.71-2.19c-.36-.14-.66-.38-.88-.7-.22-.32-.33-.69-.33-1.08s.12-.76,.33-1.08c.22-.32,.52-.56,.88-.7l16.5-6.44c.34-.12,.71-.15,1.06-.07,.35,.08,.67,.26,.93,.51,.25,.26,.43,.58,.51,.93,.08,.35,.05,.72-.07,1.06l-6.42,16.57c-.14,.35-.38,.66-.69,.87-.31,.22-.68,.33-1.06,.33-.38,0-.75-.11-1.06-.32-.31-.21-.56-.52-.7-.87Z"/>
</svg>