<?xml version="1.0" encoding="UTF-8"?>
<svg id="Layer_1" data-name="Layer 1" xmlns="http://www.w3.org/2000/svg" viewBox="0 0 28.3 32.25">
  <defs>
    <style>
      .cls-1 {
        fill: red;
      }
    </style>
  </defs>
  <path class="cls-1" d="M20.54,32.25H7.82c-1.06,0-2.06-.41-2.81-1.16-.75-.75-1.16-1.75-1.16-2.81V10.81h.94v-1H24.51V28.28c0,1.06-.41,2.06-1.16,2.81-.75,.75-1.75,1.16-2.81,1.16ZM5.85,11.81V28.28c0,.52,.21,1.03,.58,1.39,.37,.37,.87,.58,1.39,.58h12.72c.53,0,1.02-.21,1.39-.58s.58-.87,.58-1.39V11.81H5.85Z"/>
  <path class="cls-1" d="M24.55,11.81H3.75c-2.07,0-3.75-1.68-3.75-3.75s1.68-3.75,3.75-3.75H24.55c2.07,0,3.75,1.68,3.75,3.75s-1.68,3.75-3.75,3.75ZM3.75,6.31c-.96,0-1.75,.78-1.75,1.75s.78,1.75,1.75,1.75H24.55c.96,0,1.75-.78,1.75-1.75s-.78-1.75-1.75-1.75H3.75Z"/>
  <path class="cls-1" d="M19,3.78h-2v-1.49c0-.08-.03-.15-.08-.21s-.13-.09-.21-.09h-5.1c-.08,0-.15,.03-.21,.09-.06,.06-.09,.13-.09,.21v1.49h-2v-1.49c0-.61,.24-1.19,.67-1.62,.43-.43,1.02-.67,1.62-.67h5.1c.6,0,1.2,.25,1.62,.67,.43,.43,.67,1.01,.67,1.62v1.49Z"/>
</svg>