<?xml version="1.0" encoding="UTF-8"?>
<svg id="Layer_1" data-name="Layer 1" xmlns="http://www.w3.org/2000/svg" viewBox="0 0 50.82 41.64">
  <defs>
    <style>
      .cls-1 {
        fill: #999;
      }
    </style>
  </defs>
  <path class="cls-1" d="M16.86,41.64c-3.38,0-6.77-.58-9.99-1.74-1.27-.47-2.49-1.04-3.64-1.72-1.52-.87-2.02-1.13-2.23-1.25-.1-.05-.15-.08-.2-.11l-.23-.13-.43-.53-.13-.82,.13-.39c.11-.29,.27-.52,.49-.69l.32-.26,.64-.1,.19,.02c3.75,.44,7.09-.07,10.15-1.56-2.94-1.24-5.05-3.55-6.3-6.89l-.14-.36,.05-.45c.05-.29,.16-.55,.33-.77l.11-.15c-2.43-2.11-3.7-5.03-3.81-8.75v-.06s.02-.41,.02-.41l.36-.66,.64-.42,.28-.03c-.47-.95-.81-1.97-1-3.03-.52-2.75,.01-5.58,1.49-7.97l1.12-1.81,1.33,1.66c2.27,2.83,5.05,5.12,8.26,6.79,2.69,1.4,5.54,2.3,8.52,2.69-.11-2.65,.71-5.23,2.35-7.35,1.8-2.32,4.38-3.83,7.28-4.24,1.7-.28,3.5-.14,5.17,.41,1.48,.48,2.84,1.29,3.99,2.33,.13-.04,.27-.08,.44-.12,1.48-.38,2.89-.95,4.2-1.72l.27-.16,.32-.27h1.09s.79,.59,.79,.59l.17,.45c.11,.31,.12,.68,0,1.02-.19,.69-.46,1.35-.78,2l.05-.04,.62-.16,.54,.07,.63,.39,.33,.44,.18,.62-.05,.22v.22l-.41,.65c-.46,.55-3.04,3.65-4.6,4.96-.02,9.67-3.9,17.71-11.53,23.91-3.57,2.8-7.8,4.61-12.26,5.25-1.69,.3-3.4,.45-5.11,.45Zm-9.52-4.78c.19,.08,.37,.15,.56,.22,4.34,1.56,9.05,1.96,13.6,1.15,3.99-.57,7.73-2.17,10.86-4.63,6.97-5.67,10.47-13.04,10.4-21.91,0-.34,.08-.7,.24-1.02,.16-.32,.39-.6,.68-.81,.28-.21,.66-.57,1.1-1.02-.11,.02-.22,.04-.33,.06l-6.18,.99,5.06-3.69c.36-.26,.7-.55,1.01-.87-.38,.12-.76,.23-1.15,.33-.2,.05-.37,.11-.51,.15-.52,.17-1.49,.48-2.37-.4-.9-.92-2.02-1.62-3.24-2.02-1.21-.4-2.52-.5-3.79-.29-2.15,.31-4.05,1.41-5.36,3.11-1.32,1.7-1.91,3.82-1.68,5.97l.31,2.82-1.78-.11c-4.03-.25-7.89-1.33-11.48-3.19-2.88-1.5-5.44-3.43-7.65-5.77-.38,1.25-.45,2.59-.21,3.9,.37,2.04,1.47,3.86,3.09,5.13l4.1,3.21-5.18-.53c-.67-.07-1.33-.2-1.97-.39,.68,2.92,2.55,4.88,5.76,6.1l5.17,1.96-5.45,.92c-.51,.09-1.03,.14-1.54,.16,1.41,2.29,3.52,3.55,6.5,3.93l3.7,.48-3,2.22c-2.85,2.11-5.92,3.39-9.26,3.85ZM45.47,12.25s0,0-.01,0c0,0,0,0,.01,0Zm.28-.6h0s0,0,0,0Z"/>
</svg>