<?xml version="1.0" encoding="UTF-8"?>
<svg id="Layer_1" data-name="Layer 1" xmlns="http://www.w3.org/2000/svg" viewBox="0 0 26 26.07">
  <defs>
    <style>
      .cls-1 {
        fill: #676767;
      }
    </style>
  </defs>
  <path class="cls-1" d="M12.81,13.18c-3.63,0-6.59-2.96-6.59-6.59S9.17,0,12.81,0s6.59,2.96,6.59,6.59-2.96,6.59-6.59,6.59Zm0-11.18c-2.53,0-4.59,2.06-4.59,4.59s2.06,4.59,4.59,4.59,4.59-2.06,4.59-4.59-2.06-4.59-4.59-4.59Z"/>
  <path class="cls-1" d="M25,26.07c-.55,0-1-.45-1-1v-4c0-2.21-1.79-4-4-4H6c-2.21,0-4,1.79-4,4v4c0,.55-.45,1-1,1s-1-.45-1-1v-4c0-3.31,2.69-6,6-6h14c3.31,0,6,2.69,6,6v4c0,.55-.45,1-1,1Z"/>
</svg>