<?xml version="1.0" encoding="UTF-8"?>
<svg id="Layer_1" data-name="Layer 1" xmlns="http://www.w3.org/2000/svg" viewBox="0 0 52 22.75">
  <defs>
    <style>
      .cls-1 {
        fill: #f15a24;
      }
    </style>
  </defs>
  <path class="cls-1" d="M25.83,11.64c-3.21,0-5.82-2.61-5.82-5.82S22.63,0,25.83,0s5.82,2.61,5.82,5.82-2.61,5.82-5.82,5.82Zm0-9.64c-2.11,0-3.82,1.71-3.82,3.82s1.71,3.82,3.82,3.82,3.82-1.71,3.82-3.82-1.71-3.82-3.82-3.82Z"/>
  <path class="cls-1" d="M36.34,22.75c-.55,0-1-.45-1-1v-2.76c0-2.21-1.79-4-4-4h-10.69c-2.21,0-4,1.79-4,4v2.76c0,.55-.45,1-1,1s-1-.45-1-1v-2.76c0-3.31,2.69-6,6-6h10.69c3.31,0,6,2.69,6,6v2.76c0,.55-.45,1-1,1Z"/>
  <path class="cls-1" d="M40.49,11.64c-3.21,0-5.82-2.61-5.82-5.82s2.61-5.82,5.82-5.82,5.82,2.61,5.82,5.82-2.61,5.82-5.82,5.82Zm0-9.64c-2.11,0-3.82,1.71-3.82,3.82s1.71,3.82,3.82,3.82,3.82-1.71,3.82-3.82-1.71-3.82-3.82-3.82Z"/>
  <path class="cls-1" d="M51,22.75c-.55,0-1-.45-1-1v-2.76c0-2.21-1.79-4-4-4h-6.64c-.55,0-1-.45-1-1s.45-1,1-1h6.64c3.31,0,6,2.69,6,6v2.76c0,.55-.45,1-1,1Z"/>
  <path class="cls-1" d="M11.51,11.64c-3.21,0-5.82-2.61-5.82-5.82S8.3,0,11.51,0s5.82,2.61,5.82,5.82-2.61,5.82-5.82,5.82Zm0-9.64c-2.11,0-3.82,1.71-3.82,3.82s1.71,3.82,3.82,3.82,3.82-1.71,3.82-3.82-1.71-3.82-3.82-3.82Z"/>
  <path class="cls-1" d="M1,22.75c-.55,0-1-.45-1-1v-2.76c0-3.31,2.69-6,6-6h6.64c.55,0,1,.45,1,1s-.45,1-1,1H6c-2.21,0-4,1.79-4,4v2.76c0,.55-.45,1-1,1Z"/>
</svg>