<svg width="39" height="35" viewBox="0 0 39 35" fill="none" xmlns="http://www.w3.org/2000/svg">
<path d="M33.83 33.34V31.94H4.88C4.26 31.94 3.77 31.7 3.39 31.31C3.02 30.92 2.8 30.39 2.8 29.86C2.8 29.52 2.88 29.18 3.08 28.83L17.56 3.83C17.77 3.47 18.03 3.23 18.34 3.05C18.65 2.88 19 2.79 19.35 2.79C19.7 2.79 20.05 2.88 20.36 3.05C20.67 3.22 20.93 3.47 21.14 3.83L35.61 28.82C35.81 29.17 35.89 29.51 35.89 29.85C35.89 30.38 35.67 30.91 35.3 31.3C34.93 31.68 34.44 31.92 33.81 31.93V34.73C35.21 34.73 36.46 34.14 37.32 33.24C38.18 32.34 38.69 31.13 38.69 29.85C38.69 29.03 38.48 28.19 38.03 27.41L23.57 2.43C23.11 1.63 22.46 1.01 21.72 0.61C20.98 0.2 20.17 0 19.35 0C18.54 0 17.72 0.2 16.98 0.61C16.24 1.02 15.59 1.64 15.13 2.43L0.66 27.42C0.21 28.19 0 29.04 0 29.86C0 31.14 0.51 32.35 1.37 33.25C2.23 34.15 3.48 34.74 4.88 34.74H33.83V33.34Z" fill="#F15A24"/>
<path d="M17.95 10.74V22.92C17.95 23.69 18.58 24.32 19.35 24.32C20.12 24.32 20.75 23.69 20.75 22.92V10.74C20.75 9.96997 20.12 9.33997 19.35 9.33997C18.58 9.33997 17.95 9.96997 17.95 10.74Z" fill="#F15A24"/>
<path d="M19.35 28.84C19.72 28.84 20.08 28.69 20.34 28.43C20.6 28.17 20.75 27.81 20.75 27.44C20.75 27.07 20.6 26.71 20.34 26.45C20.08 26.19 19.72 26.04 19.35 26.04C18.98 26.04 18.62 26.19 18.36 26.45C18.1 26.71 17.95 27.07 17.95 27.44C17.95 27.81 18.1 28.17 18.36 28.43C18.62 28.69 18.98 28.84 19.35 28.84Z" fill="#F15A24"/>
</svg>
