<svg xmlns="http://www.w3.org/2000/svg" display="none" width="0" height="0">
	<symbol id="search" viewBox="0 0 24 24">
    <path d="M7.37435 17.2107L1 24.2225" stroke="#676767" stroke-width="2" stroke-linecap="round"/>
    <circle cx="13.43" cy="9.88025" r="8.88025" stroke="#676767" stroke-width="2"/>
  </symbol>


	<symbol id="accounts" viewBox="0 0 24 24">
    <path d="M12.8073 13.1131C15.8944 13.1131 18.3971 10.6104 18.3971 7.52325C18.3971 4.43609 15.8944 1.93344 12.8073 1.93344C9.72011 1.93344 7.21747 4.43609 7.21747 7.52325C7.21747 10.6104 9.72011 13.1131 12.8073 13.1131Z" stroke="#676767" stroke-width="2" stroke-miterlimit="10" stroke-linecap="round"/>
    <path d="M25 26V22C25 19.2386 22.7614 17 20 17H6C3.23858 17 1 19.2386 1 22V26" stroke="#676767" stroke-width="2" stroke-linecap="round"/>
  </symbol>


  <symbol id="cart" viewBox="0 0 24 24">
    <path class="cls-1" d="M27.97,26H4.03c-1.08,0-2.09-.42-2.85-1.19-.76-.76-1.18-1.78-1.18-2.86V4.05C0,2.97,.42,1.96,1.18,1.19,1.92,.43,2.96,0,4.02,0H27.97c1.08,0,2.09,.42,2.85,1.19,.76,.76,1.18,1.78,1.18,2.86V21.95c0,1.08-.42,2.1-1.18,2.86-.76,.77-1.77,1.19-2.85,1.19ZM4.02,2c-.54,0-1.05,.21-1.43,.6-.38,.38-.6,.91-.6,1.46V21.95c0,.54,.22,1.07,.6,1.46,.38,.39,.89,.6,1.43,.6H27.97c.54,0,1.05-.21,1.43-.6,.38-.38,.6-.91,.6-1.46V4.05c0-.54-.22-1.07-.6-1.46-.38-.39-.89-.6-1.43-.6H4.02Zm12.69,11h-.45c-3.86,0-7-3.14-7-7,0-.55,.45-1,1-1s1,.45,1,1c0,2.76,2.24,5,5,5h.45c2.76,0,5-2.24,5-5,0-.55,.45-1,1-1s1,.45,1,1c0,3.86-3.14,7-7,7Z"/>
  </symbol>





  <symbol id="aparat" viewBox="0 0 24 24">
    <path class="cls-1" d="M23.1,46.35c-1.46,0-2.92-.14-4.36-.42-4.5-.87-8.61-3.04-11.87-6.28-3.26-3.24-5.47-7.33-6.39-11.84C-.45,23.31-.02,18.67,1.72,14.41,3.45,10.15,6.38,6.53,10.18,3.96,13.99,1.38,18.42,.01,23.01,0h.1c6.1,0,11.85,2.37,16.2,6.68,4.37,4.33,6.8,10.12,6.85,16.28h0c.04,4.6-1.27,9.07-3.78,12.92-2.52,3.85-6.08,6.83-10.3,8.63-2.87,1.22-5.91,1.83-8.98,1.83Zm.01-43.35h-.09c-3.99,.01-7.85,1.2-11.16,3.44-3.31,2.24-5.86,5.39-7.37,9.1-1.51,3.71-1.89,7.75-1.09,11.68,.8,3.93,2.72,7.5,5.56,10.31,2.84,2.82,6.41,4.7,10.33,5.46,3.92,.75,7.93,.33,11.6-1.23,3.67-1.56,6.77-4.16,8.96-7.51,2.19-3.35,3.33-7.25,3.29-11.25h0c-.04-5.37-2.16-10.41-5.96-14.18-3.78-3.75-8.78-5.81-14.09-5.81Z"/>
    <path class="cls-1" d="M35.38,32.61c.01-1.23-.34-2.43-1.01-3.46-.67-1.03-1.63-1.83-2.76-2.3-1.13-.47-2.37-.6-3.57-.36-1.2,.24-2.3,.83-3.17,1.7-.86,.87-1.45,1.98-1.69,3.18-.24,1.2-.11,2.45,.36,3.59,.47,1.13,1.27,2.1,2.29,2.77s2.22,1.03,3.44,1.02c1.61-.02,3.16-.67,4.3-1.81,1.14-1.15,1.79-2.7,1.8-4.32Z"/>
    <path class="cls-1" d="M13.83,23.53c-.8,0-1.59,.14-2.34,.44-.74,.3-1.42,.74-1.99,1.31-.57,.56-1.03,1.23-1.34,1.97-.31,.74-.48,1.53-.49,2.34,0,.8,.14,1.6,.44,2.35,.3,.75,.74,1.42,1.3,2,.56,.57,1.23,1.03,1.96,1.35,.74,.32,1.53,.48,2.33,.49,.8,0,1.59-.14,2.34-.44,.74-.3,1.42-.74,1.99-1.31,.57-.56,1.03-1.23,1.34-1.97,.31-.74,.48-1.53,.49-2.34,0-.8-.14-1.6-.44-2.35-.3-.75-.74-1.42-1.3-2-.56-.57-1.23-1.03-1.96-1.35-.74-.32-1.53-.48-2.33-.49Z"/>
    <path class="cls-1" d="M16.93,7.29c-1.19,0-2.36,.37-3.35,1.04-.99,.67-1.76,1.62-2.22,2.73s-.57,2.33-.34,3.51c.23,1.18,.8,2.26,1.64,3.11,.84,.85,1.91,1.43,3.08,1.68,1.17,.24,2.38,.13,3.49-.32,1.11-.45,2.06-1.22,2.73-2.2,.68-.99,1.05-2.16,1.06-3.36,0-.81-.15-1.61-.45-2.36-.3-.75-.75-1.43-1.32-2.01-.57-.58-1.24-1.03-1.99-1.34-.74-.31-1.54-.47-2.35-.47Z"/>
    <path class="cls-1" d="M32.33,22.48c1.21,0,2.39-.36,3.39-1.03,1-.67,1.79-1.63,2.25-2.75,.46-1.12,.58-2.35,.35-3.54-.23-1.19-.82-2.28-1.67-3.14-.85-.86-1.94-1.44-3.12-1.68-1.18-.24-2.41-.12-3.53,.35-1.12,.46-2.07,1.25-2.74,2.26-.67,1.01-1.03,2.19-1.03,3.41,0,.81,.15,1.6,.45,2.35,.3,.75,.75,1.42,1.32,1.99,.57,.57,1.24,1.02,1.98,1.33,.74,.31,1.54,.46,2.34,.46Z"/>
    <path class="cls-1" d="M22.93,20.46c-.53,.01-1.04,.18-1.48,.48-.43,.3-.77,.73-.97,1.22-.19,.49-.24,1.04-.13,1.56,.11,.52,.37,1,.75,1.37,.38,.37,.86,.62,1.38,.72,.52,.1,1.06,.04,1.55-.17,.49-.21,.9-.56,1.19-1,.29-.44,.45-.97,.44-1.5-.01-.72-.31-1.41-.82-1.91-.51-.5-1.2-.78-1.92-.78Z"/>
  </symbol>


	<!-- arrows -->
	<symbol id="arrowRight" viewBox="0 0 24 24">
		<path d="M6.8,18.36l5-4.72,1.44-1.36a.39.39,0,0,0,0-.55l-1.39-1.32-5-4.72a1,1,0,0,1-.1-1.34.12.12,0,0,0,0,0l0-.07,1-.94a1,1,0,0,1,1.4,0l8,8a1,1,0,0,1,.05,1.33l-.05.05-8.06,8a1,1,0,0,1-1.33.05l-.06-.05-1-.95a1,1,0,0,1,0-1.33Z" />
	</symbol>
	<symbol id="arrowLeft" viewBox="0 0 24 24">
		<path d="M17.2,18.36l-5-4.72-1.44-1.36a.39.39,0,0,1,0-.55l1.39-1.32,5-4.72a1,1,0,0,0,.1-1.34l-.05,0,0-.07-1-.94a1,1,0,0,0-1.4,0l-8,8a1,1,0,0,0,0,1.33l0,.05,8.06,8a1,1,0,0,0,1.33.05l.06-.05.95-.95a1,1,0,0,0,.05-1.33Z" />
	</symbol>
	<symbol id="arrowDown" viewBox="0 0 24 24">
		<path d="M18.29,6.8l-4.72,5L12.2,13.21a.39.39,0,0,1-.55,0l-1.32-1.39-4.72-5a1,1,0,0,0-1.33-.1l-.06,0-.07,0-.94,1a1,1,0,0,0,0,1.4l8,8a1,1,0,0,0,1.33.05l.05-.05,8.05-8.06a1,1,0,0,0,.05-1.33l-.05-.06-.95-1a1,1,0,0,0-1.33,0Z" />
	</symbol>
	<symbol id="arrowUp" viewBox="0 0 24 24">
		<path d="M18.29,17.2l-4.72-5L12.2,10.79a.39.39,0,0,0-.55,0l-1.32,1.39-4.72,5a1,1,0,0,1-1.33.1l-.06-.05-.07,0-.94-1a1,1,0,0,1,0-1.4l8-8a1,1,0,0,1,1.33,0l.05,0,8.05,8.06a1,1,0,0,1,.05,1.33l-.05.06-.95.95a1,1,0,0,1-1.33.05Z" />
	</symbol>
	<symbol id="prev" viewBox="0 0 24 24">
		<path d="M6.8,18.36l5-4.72,1.44-1.36a.39.39,0,0,0,0-.55l-1.39-1.32-5-4.72a1,1,0,0,1-.1-1.34.12.12,0,0,0,0,0l0-.07,1-.94a1,1,0,0,1,1.4,0l8,8a1,1,0,0,1,.05,1.33l-.05.05-8.06,8a1,1,0,0,1-1.33.05l-.06-.05-1-.95a1,1,0,0,1,0-1.33Z" />
	</symbol>
	<symbol id="next" viewBox="0 0 24 24">
		<path d="M17.2,18.36l-5-4.72-1.44-1.36a.39.39,0,0,1,0-.55l1.39-1.32,5-4.72a1,1,0,0,0,.1-1.34l-.05,0,0-.07-1-.94a1,1,0,0,0-1.4,0l-8,8a1,1,0,0,0,0,1.33l0,.05,8.06,8a1,1,0,0,0,1.33.05l.06-.05.95-.95a1,1,0,0,0,.05-1.33Z" />
	</symbol>
	<symbol id="plus" viewBox="0 0 24 24">
		<path d="M20.44,10.36h-6.8V3.56A.56.56,0,0,0,13.08,3H10.92a.56.56,0,0,0-.56.56v6.8H3.56a.56.56,0,0,0-.56.56v2.16a.56.56,0,0,0,.56.56h6.8v6.8a.56.56,0,0,0,.56.56h2.16a.56.56,0,0,0,.56-.56v-6.8h6.8a.56.56,0,0,0,.56-.56V10.92A.56.56,0,0,0,20.44,10.36Z" />
	</symbol>
		<symbol id="check" viewBox="0 0 24 24">
		<path d="M9.1,18.48,3.27,12.6a.91.91,0,0,1,0-1.27h0L4.54,10a.89.89,0,0,1,1.23,0L9.7,14l8.49-8.48a.9.9,0,0,1,1.26,0v0L20.73,6.8a.9.9,0,0,1,0,1.26h0L10.38,18.48a.9.9,0,0,1-1.26,0Z" />
	</symbol>
	<symbol id="minus" viewBox="0 0 24 24">
		<rect x="3" y="10.36" width="18" height="3.29" rx="0.6" transform="translate(24 24) rotate(-180)" />
	</symbol>
	<symbol id="ring" viewBox="0 0 24 24">
		<path d="M18.9,16.92l-1.27-1.85V10A5.56,5.56,0,0,0,12.8,4.57V3.78a.8.8,0,0,0-1.6,0v.79A5.56,5.56,0,0,0,6.37,10v5L5.1,16.92a.78.78,0,0,0,0,.78.75.75,0,0,0,.67.39h4C9.88,19.77,11,21,12,21s2.12-1.31,2.22-2.91h4a.75.75,0,0,0,.67-.39.78.78,0,0,0,0-.78Z" />
	</symbol>
	<symbol id="location" viewBox="0 0 24 24">
		<path d="M11.71,2a5.28,5.28,0,0,1,5.4,4.7,5.1,5.1,0,0,1-.51,2.61,23,23,0,0,1-2.38,4.11c-.56.81-1.16,1.6-1.76,2.39a.52.52,0,0,1-.82.09.71.71,0,0,1-.15-.15,32.86,32.86,0,0,1-3.76-5.7A8.3,8.3,0,0,1,7,8,4.5,4.5,0,0,1,7.35,5,5,5,0,0,1,11.71,2ZM9.91,7.18A2.1,2.1,0,1,0,12,5,2.11,2.11,0,0,0,9.91,7.18Z" />
		<path d="M12,20H5.75a1.62,1.62,0,0,1-1.52-.83,1.75,1.75,0,0,1,0-1.82c.63-1.05,1.24-2.09,1.85-3.14a1.88,1.88,0,0,1,1.68-1,.83.83,0,0,1,.78.42c.65.95,1.35,1.86,2,2.78a1.73,1.73,0,0,0,.92.68,1.52,1.52,0,0,0,1.69-.51c.53-.64,1-1.32,1.52-2,.31-.41.58-.84.88-1.25a.35.35,0,0,1,.21-.12,3.62,3.62,0,0,1,.66,0,1.72,1.72,0,0,1,1.32.87c.66,1.09,1.3,2.19,1.95,3.29A1.69,1.69,0,0,1,18.33,20C16.22,20,14.11,20,12,20Z" />
	</symbol>
	<symbol id="lock" viewBox="0 0 24 24">
		<path  d="M17.26,21H6.74A1.72,1.72,0,0,1,5,19.32V11.65A1.72,1.72,0,0,1,6.74,10H17.26A1.72,1.72,0,0,1,19,11.65v7.67A1.72,1.72,0,0,1,17.26,21ZM7.26,9V5.2A2.24,2.24,0,0,1,9.53,3h4.94a2.24,2.24,0,0,1,2.27,2.2V9a.35.35,0,0,1-.36.34h-.79A.35.35,0,0,1,15.24,9V5.2a.77.77,0,0,0-.77-.75H9.53a.77.77,0,0,0-.77.75V9a.35.35,0,0,1-.36.34H7.62A.35.35,0,0,1,7.26,9Zm5.45,6.82a1.37,1.37,0,0,0,.72-1.2,1.43,1.43,0,0,0-2.86,0,1.38,1.38,0,0,0,.71,1.2v1.57a.72.72,0,0,0,1.43,0Z" />
	</symbol>
	<symbol id="logout" viewBox="0 0 24 24">
		<path d="M18.17,16.46V17a1.91,1.91,0,0,1-1.69,2H11.75a2,2,0,0,1-.7,1.54A1.55,1.55,0,0,1,9.59,21L4.34,19.54A2,2,0,0,1,3,17.61V6.39A1.92,1.92,0,0,1,4.34,4.46L9.59,3.05a1.55,1.55,0,0,1,1.46.38,1.77,1.77,0,0,1,.7,1.48h4.67a1.81,1.81,0,0,1,1.75,1.92v.65a.58.58,0,1,1-1.16,0V6.9a.69.69,0,0,0-.53-.71H11.75V17.74h4.67A.58.58,0,0,0,17,17.1v-.64a.58.58,0,1,1,1.16,0Zm-.56-7.18.3-.33a.29.29,0,0,1,.45,0h0l2.54,2.79a.35.35,0,0,1,0,.47l0,0h0l-2.56,2.82a.28.28,0,0,1-.42,0l0,0h0l-.3-.33a.36.36,0,0,1,0-.47l0,0h0l1.58-1.65H13.65a.32.32,0,0,1-.3-.33v-.48a.32.32,0,0,1,.3-.33h5.54L17.62,9.79a.36.36,0,0,1,0-.47l0,0Z" />
	</symbol>

	<symbol id="clear" viewBox="0 0 24 24">
		<path class="b" d="M18,3.5H6A2.5,2.5,0,0,0,3.5,6V18A2.5,2.5,0,0,0,6,20.5H18A2.5,2.5,0,0,0,20.5,18V6.05A2.55,2.55,0,0,0,18,3.5Zm-2,11.15a.26.26,0,0,1,0,.38l-.89.89a.26.26,0,0,1-.38,0L12,13.27,9.35,15.92a.26.26,0,0,1-.38,0L8.08,15a.26.26,0,0,1,0-.38L10.73,12,8.08,9.35a.26.26,0,0,1,0-.38L9,8.08a.26.26,0,0,1,.38,0L12,10.73l2.65-2.65a.26.26,0,0,1,.38,0l.89.89a.26.26,0,0,1,0,.38L13.27,12Z" />
	</symbol>

	<symbol id="success" viewBox="0 0 24 24">
		<path d="M12,21a9,9,0,1,1,9-9A9,9,0,0,1,12,21ZM12,4.81A7.19,7.19,0,1,0,19.19,12,7.2,7.2,0,0,0,12,4.81Z" />
		<path d="M10.67,14.94,8,12.27a.4.4,0,0,1,0-.57H8l.58-.58a.4.4,0,0,1,.56,0l1.8,1.8,3.88-3.85a.41.41,0,0,1,.57,0h0l.58.58a.4.4,0,0,1,0,.57h0l-4.73,4.72a.41.41,0,0,1-.57,0Z" />
	</symbol>
	<symbol id="warning" viewBox="0 0 24 24">
		<path d="M12,20.91a9,9,0,1,1,9-9A9,9,0,0,1,12,20.91ZM12,4.72a7.19,7.19,0,1,0,7.19,7.19A7.2,7.2,0,0,0,12,4.72Z" />
		<rect x="9.04" y="9.34" width="6" height="2" rx="0.42" transform="translate(1.7 22.38) rotate(-90)" />
		<rect x="11.04" y="14.1" width="2" height="2" rx="0.42" />
	</symbol>
	<symbol id="done" viewBox="0 0 24 24">
		<path d="M12,3a9,9,0,1,0,9,9h0A9,9,0,0,0,12,3ZM10.38,15.58,7.13,12.33a.5.5,0,0,1,0-.7h0l.71-.7a.49.49,0,0,1,.69,0l2.19,2.19,4.73-4.7a.49.49,0,0,1,.7,0h0l.71.71a.5.5,0,0,1,0,.7h0L11.1,15.58a.49.49,0,0,1-.7,0Z" />
	</symbol>
	<symbol id="remove" viewBox="0 0 24 24">
		<path d="M12,3a9,9,0,1,0,9,9A9,9,0,0,0,12,3Zm4.21,9.58a.45.45,0,0,1-.44.45H8.23a.45.45,0,0,1-.44-.45V11.42A.45.45,0,0,1,8.23,11h7.54a.45.45,0,0,1,.44.45Z" />
	</symbol>
	<symbol id="circle" viewBox="0 0 24 24">
		<path d="M12,20.91a9,9,0,1,1,9-9A9,9,0,0,1,12,20.91ZM12,4.72a7.19,7.19,0,1,0,7.19,7.19A7.2,7.2,0,0,0,12,4.72Z" />
	</symbol>

</svg>
