<svg xmlns="http://www.w3.org/2000/svg" display="none" width="0" height="0">
	<symbol id="close" viewBox="0 0 24 24">
		<path d="M14.86,12l6-6a.59.59,0,0,0,0-.85l-2-2a.59.59,0,0,0-.85,0l-6,6-6-6a.59.59,0,0,0-.85,0l-2,2a.59.59,0,0,0,0,.85l6,6-6,6a.59.59,0,0,0,0,.85l2,2a.59.59,0,0,0,.85,0l6-6,6,6a.59.59,0,0,0,.85,0l2-2a.59.59,0,0,0,0-.85Z" />
	</symbol>
	<symbol id="apartment" viewBox="0 0 24 24">
		<rect fill="none" width="24" height="24" />
		<path d="M3.5,19.92V4.63a1.31,1.31,0,0,1,.09-.34,1.22,1.22,0,0,1,1.32-.78c.28,0,.55.08.83.12l1.1.17.83.13.95.14.84.13,1,.15.83.13L12,4.6c.29.05.58.07.86.14a1.43,1.43,0,0,1,.45.26l0,0a1.2,1.2,0,0,1,.35.58,1.77,1.77,0,0,1,0,.51V20.5h-3c0-.19,0-.38,0-.57,0-1,0-2.08,0-3.12a1.62,1.62,0,0,0,0-.31,1.22,1.22,0,0,0-1.16-1H7.74a1,1,0,0,0-.42.08l-.15.06h0a.91.91,0,0,0-.16.11H7a1.54,1.54,0,0,0-.25.26h0a1.11,1.11,0,0,0-.18.34,1.61,1.61,0,0,0-.06.49V20.5H4.1s0,0-.08,0a.81.81,0,0,1-.46-.39A.85.85,0,0,0,3.5,19.92Zm3.37-8.17h.57a.53.53,0,0,0,.47-.65.54.54,0,0,0-.51-.41H6.24a.53.53,0,0,0,.08,1.05Zm0,2.14h.57a.53.53,0,0,0,.47-.65.54.54,0,0,0-.51-.41H6.24a.53.53,0,0,0,.08,1.05Zm0-6.42c.2,0,.39,0,.58,0a.53.53,0,0,0,0-1.06H6.24a.53.53,0,0,0,.08,1Zm0,2.14h.57A.53.53,0,0,0,7.91,9a.54.54,0,0,0-.48-.4c-.37,0-.75,0-1.12,0a.53.53,0,0,0,0,1.06Zm3.55,0H11a.53.53,0,0,0,0-1.06c-.37,0-.74,0-1.11,0a.53.53,0,0,0,0,1.06Zm0,4.28H11a.52.52,0,0,0,.51-.6.53.53,0,0,0-.49-.46H9.86a.54.54,0,0,0-.51.63.53.53,0,0,0,.5.43Zm0-6.42h0c.18,0,.36,0,.54,0a.52.52,0,0,0,.51-.6A.51.51,0,0,0,11,6.41H9.86a.52.52,0,0,0-.47.73.5.5,0,0,0,.46.33Zm0,4.28H11a.53.53,0,0,0,0-1.06H9.86a.53.53,0,0,0-.49.68.51.51,0,0,0,.48.38Z" />
		<path d="M20.1,11.41a1.48,1.48,0,0,1,.25.31,1.71,1.71,0,0,1,.13.38s0,0,0,.06,0,0,0,0v7.1c0,.07,0,.13,0,.19a1.26,1.26,0,0,1-.56.82,1,1,0,0,1-.55.18h-4.9v-.6q0-4.83,0-9.66v-.15s0-.05,0,0l.48.1,1,.22.56.12,1.09.23.84.17,1,.21.13,0A1.5,1.5,0,0,1,20.1,11.41Zm-2.78,2.66H18A.54.54,0,0,0,17.9,13c-.39,0-.78,0-1.17,0a.38.38,0,0,0-.25.09.51.51,0,0,0-.22.52.52.52,0,0,0,.44.43C16.91,14.08,17.11,14.07,17.32,14.07Zm0,4.28H18a.54.54,0,0,0,.39-.58.52.52,0,0,0-.48-.46,11,11,0,0,0-1.15,0,.39.39,0,0,0-.26.09.52.52,0,0,0-.22.52.54.54,0,0,0,.44.44Zm0-2.14H18a.54.54,0,0,0,.39-.58.52.52,0,0,0-.47-.46,11.42,11.42,0,0,0-1.17,0,.38.38,0,0,0-.25.09.51.51,0,0,0-.22.52.52.52,0,0,0,.44.43C16.91,16.22,17.11,16.21,17.32,16.21Z" />
	</symbol>
	

	

	
	<symbol id="account" viewBox="0 0 24 24">
		<rect fill="none" width="24" height="24" />
		<path d="M17.13,12.07H6.87A2.36,2.36,0,0,0,4.5,14.4v6a.58.58,0,0,0,.58.57H18.92a.58.58,0,0,0,.58-.57v-6a2.36,2.36,0,0,0-2.37-2.33Z" />
		<rect x="8.18" y="3" width="7.63" height="7.51" rx="3.75" />
	</symbol>
	
	
	<!-- arrows -->
	<symbol id="arrowRight" viewBox="0 0 24 24">
		<path d="M6.8,18.36l5-4.72,1.44-1.36a.39.39,0,0,0,0-.55l-1.39-1.32-5-4.72a1,1,0,0,1-.1-1.34.12.12,0,0,0,0,0l0-.07,1-.94a1,1,0,0,1,1.4,0l8,8a1,1,0,0,1,.05,1.33l-.05.05-8.06,8a1,1,0,0,1-1.33.05l-.06-.05-1-.95a1,1,0,0,1,0-1.33Z" />
	</symbol>
	<symbol id="arrowLeft" viewBox="0 0 24 24">
		<path d="M17.2,18.36l-5-4.72-1.44-1.36a.39.39,0,0,1,0-.55l1.39-1.32,5-4.72a1,1,0,0,0,.1-1.34l-.05,0,0-.07-1-.94a1,1,0,0,0-1.4,0l-8,8a1,1,0,0,0,0,1.33l0,.05,8.06,8a1,1,0,0,0,1.33.05l.06-.05.95-.95a1,1,0,0,0,.05-1.33Z" />
	</symbol>
	<symbol id="arrowDown" viewBox="0 0 24 24">
		<path d="M18.29,6.8l-4.72,5L12.2,13.21a.39.39,0,0,1-.55,0l-1.32-1.39-4.72-5a1,1,0,0,0-1.33-.1l-.06,0-.07,0-.94,1a1,1,0,0,0,0,1.4l8,8a1,1,0,0,0,1.33.05l.05-.05,8.05-8.06a1,1,0,0,0,.05-1.33l-.05-.06-.95-1a1,1,0,0,0-1.33,0Z" />
	</symbol>
	<symbol id="arrowUp" viewBox="0 0 24 24">
		<path d="M18.29,17.2l-4.72-5L12.2,10.79a.39.39,0,0,0-.55,0l-1.32,1.39-4.72,5a1,1,0,0,1-1.33.1l-.06-.05-.07,0-.94-1a1,1,0,0,1,0-1.4l8-8a1,1,0,0,1,1.33,0l.05,0,8.05,8.06a1,1,0,0,1,.05,1.33l-.05.06-.95.95a1,1,0,0,1-1.33.05Z" />
	</symbol>
	<symbol id="prev" viewBox="0 0 24 24">
		<path d="M6.8,18.36l5-4.72,1.44-1.36a.39.39,0,0,0,0-.55l-1.39-1.32-5-4.72a1,1,0,0,1-.1-1.34.12.12,0,0,0,0,0l0-.07,1-.94a1,1,0,0,1,1.4,0l8,8a1,1,0,0,1,.05,1.33l-.05.05-8.06,8a1,1,0,0,1-1.33.05l-.06-.05-1-.95a1,1,0,0,1,0-1.33Z" />
	</symbol>
	<symbol id="next" viewBox="0 0 24 24">
		<path d="M17.2,18.36l-5-4.72-1.44-1.36a.39.39,0,0,1,0-.55l1.39-1.32,5-4.72a1,1,0,0,0,.1-1.34l-.05,0,0-.07-1-.94a1,1,0,0,0-1.4,0l-8,8a1,1,0,0,0,0,1.33l0,.05,8.06,8a1,1,0,0,0,1.33.05l.06-.05.95-.95a1,1,0,0,0,.05-1.33Z" />
	</symbol>
	<symbol id="plus" viewBox="0 0 24 24">
		<path d="M20.44,10.36h-6.8V3.56A.56.56,0,0,0,13.08,3H10.92a.56.56,0,0,0-.56.56v6.8H3.56a.56.56,0,0,0-.56.56v2.16a.56.56,0,0,0,.56.56h6.8v6.8a.56.56,0,0,0,.56.56h2.16a.56.56,0,0,0,.56-.56v-6.8h6.8a.56.56,0,0,0,.56-.56V10.92A.56.56,0,0,0,20.44,10.36Z" />
	</symbol>
		<symbol id="check" viewBox="0 0 24 24">
		<path d="M9.1,18.48,3.27,12.6a.91.91,0,0,1,0-1.27h0L4.54,10a.89.89,0,0,1,1.23,0L9.7,14l8.49-8.48a.9.9,0,0,1,1.26,0v0L20.73,6.8a.9.9,0,0,1,0,1.26h0L10.38,18.48a.9.9,0,0,1-1.26,0Z" />
	</symbol>
	<symbol id="minus" viewBox="0 0 24 24">
		<rect x="3" y="10.36" width="18" height="3.29" rx="0.6" transform="translate(24 24) rotate(-180)" />
	</symbol>
	<symbol id="ring" viewBox="0 0 24 24">
		<path d="M18.9,16.92l-1.27-1.85V10A5.56,5.56,0,0,0,12.8,4.57V3.78a.8.8,0,0,0-1.6,0v.79A5.56,5.56,0,0,0,6.37,10v5L5.1,16.92a.78.78,0,0,0,0,.78.75.75,0,0,0,.67.39h4C9.88,19.77,11,21,12,21s2.12-1.31,2.22-2.91h4a.75.75,0,0,0,.67-.39.78.78,0,0,0,0-.78Z" />
	</symbol>
	<symbol id="location" viewBox="0 0 24 24">
		<path d="M11.71,2a5.28,5.28,0,0,1,5.4,4.7,5.1,5.1,0,0,1-.51,2.61,23,23,0,0,1-2.38,4.11c-.56.81-1.16,1.6-1.76,2.39a.52.52,0,0,1-.82.09.71.71,0,0,1-.15-.15,32.86,32.86,0,0,1-3.76-5.7A8.3,8.3,0,0,1,7,8,4.5,4.5,0,0,1,7.35,5,5,5,0,0,1,11.71,2ZM9.91,7.18A2.1,2.1,0,1,0,12,5,2.11,2.11,0,0,0,9.91,7.18Z" />
		<path d="M12,20H5.75a1.62,1.62,0,0,1-1.52-.83,1.75,1.75,0,0,1,0-1.82c.63-1.05,1.24-2.09,1.85-3.14a1.88,1.88,0,0,1,1.68-1,.83.83,0,0,1,.78.42c.65.95,1.35,1.86,2,2.78a1.73,1.73,0,0,0,.92.68,1.52,1.52,0,0,0,1.69-.51c.53-.64,1-1.32,1.52-2,.31-.41.58-.84.88-1.25a.35.35,0,0,1,.21-.12,3.62,3.62,0,0,1,.66,0,1.72,1.72,0,0,1,1.32.87c.66,1.09,1.3,2.19,1.95,3.29A1.69,1.69,0,0,1,18.33,20C16.22,20,14.11,20,12,20Z" />
	</symbol>
	<symbol id="lock" viewBox="0 0 24 24">
		<path  d="M17.26,21H6.74A1.72,1.72,0,0,1,5,19.32V11.65A1.72,1.72,0,0,1,6.74,10H17.26A1.72,1.72,0,0,1,19,11.65v7.67A1.72,1.72,0,0,1,17.26,21ZM7.26,9V5.2A2.24,2.24,0,0,1,9.53,3h4.94a2.24,2.24,0,0,1,2.27,2.2V9a.35.35,0,0,1-.36.34h-.79A.35.35,0,0,1,15.24,9V5.2a.77.77,0,0,0-.77-.75H9.53a.77.77,0,0,0-.77.75V9a.35.35,0,0,1-.36.34H7.62A.35.35,0,0,1,7.26,9Zm5.45,6.82a1.37,1.37,0,0,0,.72-1.2,1.43,1.43,0,0,0-2.86,0,1.38,1.38,0,0,0,.71,1.2v1.57a.72.72,0,0,0,1.43,0Z" />
	</symbol>
	<symbol id="logout" viewBox="0 0 24 24">
		<path d="M18.17,16.46V17a1.91,1.91,0,0,1-1.69,2H11.75a2,2,0,0,1-.7,1.54A1.55,1.55,0,0,1,9.59,21L4.34,19.54A2,2,0,0,1,3,17.61V6.39A1.92,1.92,0,0,1,4.34,4.46L9.59,3.05a1.55,1.55,0,0,1,1.46.38,1.77,1.77,0,0,1,.7,1.48h4.67a1.81,1.81,0,0,1,1.75,1.92v.65a.58.58,0,1,1-1.16,0V6.9a.69.69,0,0,0-.53-.71H11.75V17.74h4.67A.58.58,0,0,0,17,17.1v-.64a.58.58,0,1,1,1.16,0Zm-.56-7.18.3-.33a.29.29,0,0,1,.45,0h0l2.54,2.79a.35.35,0,0,1,0,.47l0,0h0l-2.56,2.82a.28.28,0,0,1-.42,0l0,0h0l-.3-.33a.36.36,0,0,1,0-.47l0,0h0l1.58-1.65H13.65a.32.32,0,0,1-.3-.33v-.48a.32.32,0,0,1,.3-.33h5.54L17.62,9.79a.36.36,0,0,1,0-.47l0,0Z" />
	</symbol>
	
	<symbol id="clear" viewBox="0 0 24 24">
		<path class="b" d="M18,3.5H6A2.5,2.5,0,0,0,3.5,6V18A2.5,2.5,0,0,0,6,20.5H18A2.5,2.5,0,0,0,20.5,18V6.05A2.55,2.55,0,0,0,18,3.5Zm-2,11.15a.26.26,0,0,1,0,.38l-.89.89a.26.26,0,0,1-.38,0L12,13.27,9.35,15.92a.26.26,0,0,1-.38,0L8.08,15a.26.26,0,0,1,0-.38L10.73,12,8.08,9.35a.26.26,0,0,1,0-.38L9,8.08a.26.26,0,0,1,.38,0L12,10.73l2.65-2.65a.26.26,0,0,1,.38,0l.89.89a.26.26,0,0,1,0,.38L13.27,12Z" />
	</symbol>
	
	<symbol id="success" viewBox="0 0 24 24">
		<path d="M12,21a9,9,0,1,1,9-9A9,9,0,0,1,12,21ZM12,4.81A7.19,7.19,0,1,0,19.19,12,7.2,7.2,0,0,0,12,4.81Z" />
		<path d="M10.67,14.94,8,12.27a.4.4,0,0,1,0-.57H8l.58-.58a.4.4,0,0,1,.56,0l1.8,1.8,3.88-3.85a.41.41,0,0,1,.57,0h0l.58.58a.4.4,0,0,1,0,.57h0l-4.73,4.72a.41.41,0,0,1-.57,0Z" />
	</symbol>
	<symbol id="warning" viewBox="0 0 24 24">
		<path d="M12,20.91a9,9,0,1,1,9-9A9,9,0,0,1,12,20.91ZM12,4.72a7.19,7.19,0,1,0,7.19,7.19A7.2,7.2,0,0,0,12,4.72Z" />
		<rect x="9.04" y="9.34" width="6" height="2" rx="0.42" transform="translate(1.7 22.38) rotate(-90)" />
		<rect x="11.04" y="14.1" width="2" height="2" rx="0.42" />
	</symbol>
	<symbol id="done" viewBox="0 0 24 24">
		<path d="M12,3a9,9,0,1,0,9,9h0A9,9,0,0,0,12,3ZM10.38,15.58,7.13,12.33a.5.5,0,0,1,0-.7h0l.71-.7a.49.49,0,0,1,.69,0l2.19,2.19,4.73-4.7a.49.49,0,0,1,.7,0h0l.71.71a.5.5,0,0,1,0,.7h0L11.1,15.58a.49.49,0,0,1-.7,0Z" />
	</symbol>
	<symbol id="remove" viewBox="0 0 24 24">
		<path d="M12,3a9,9,0,1,0,9,9A9,9,0,0,0,12,3Zm4.21,9.58a.45.45,0,0,1-.44.45H8.23a.45.45,0,0,1-.44-.45V11.42A.45.45,0,0,1,8.23,11h7.54a.45.45,0,0,1,.44.45Z" />
	</symbol>
	<symbol id="circle" viewBox="0 0 24 24">
		<path d="M12,20.91a9,9,0,1,1,9-9A9,9,0,0,1,12,20.91ZM12,4.72a7.19,7.19,0,1,0,7.19,7.19A7.2,7.2,0,0,0,12,4.72Z" />
	</symbol>

</svg>
